<svg width="123" height="40" viewBox="0 0 123 40" fill="none" xmlns="http://www.w3.org/2000/svg">
<path d="M53.168 39.4243H43.2285L49.4455 0.703125H59.3846L53.168 39.4243Z" fill="white"/>
<path d="M89.2044 1.6485C87.244 0.865033 84.1344 0 80.2894 0C70.4741 0 63.5619 5.27237 63.5195 12.8103C63.4381 18.3717 68.4684 21.4607 72.2306 23.315C76.0762 25.21 77.3833 26.4467 77.3833 28.1357C77.3443 30.7297 74.276 31.9257 71.4142 31.9257C67.4459 31.9257 65.3197 31.309 62.0883 29.866L60.7795 29.2473L59.3887 37.9393C61.72 39.009 66.015 39.9583 70.4741 40C80.9033 40 87.6931 34.8093 87.7735 26.7763C87.8132 22.3683 85.1569 18.991 79.4304 16.231C75.9538 14.4593 73.825 13.2647 73.825 11.452C73.8657 9.804 75.6255 8.116 79.5498 8.116C82.7809 8.03333 85.1553 8.81567 86.9538 9.59867L87.8526 10.01L89.2044 1.6485Z" fill="white"/>
<path d="M102.421 25.7067C103.239 23.4823 106.389 14.873 106.389 14.873C106.348 14.9557 107.206 12.6073 107.697 11.1657L108.391 14.5023C108.391 14.5023 110.274 23.7707 110.682 25.7067C109.129 25.7067 104.384 25.7067 102.421 25.7067ZM114.69 0.703125H107.002C104.631 0.703125 102.83 1.40282 101.807 3.91583L87.043 39.4237H97.4722C97.4722 39.4237 99.189 34.6447 99.5583 33.6153C100.702 33.6153 110.848 33.6153 112.32 33.6153C112.605 34.9747 113.506 39.4237 113.506 39.4237H122.709L114.69 0.703125Z" fill="white"/>
<path d="M34.9224 0.703125L25.1884 27.1073L24.1245 21.752C22.325 15.573 16.6812 8.85966 10.3828 5.52163L19.2987 39.383H29.8093L45.4326 0.703125H34.9224Z" fill="white"/>
<path d="M16.1554 0.703125H0.163607L0 1.48549C12.4746 4.69872 20.736 12.444 24.1305 21.7537L20.6539 3.95796C20.0818 1.48492 18.3229 0.784692 16.1554 0.703125Z" fill="white"/>
</svg>
