<svg width="207" height="35" viewBox="0 0 207 35" fill="none" xmlns="http://www.w3.org/2000/svg">
<path fill-rule="evenodd" clip-rule="evenodd" d="M203.837 10.5542C203.837 4.16095 199.653 0.775915 192.047 0.775915H182.54V34.2478H189.005V20.7087H189.766L198.512 34.2478H206.499L196.231 20.3324C200.794 19.5802 204.217 15.4435 203.837 10.5542ZM190.907 16.1957H189.005V6.04112H190.907C195.09 6.04112 196.992 7.92181 196.992 10.9305C196.992 14.315 195.09 16.1957 190.907 16.1957ZM178.357 34.2478H160.103V0.775915H178.357V6.41746H166.568V13.9392H177.977V19.5802H166.568V28.6063H178.357V34.2478ZM132.342 0.775915L141.089 23.3411L150.215 0.775915H157.061L142.99 35H139.567L125.497 0.775915H132.342ZM81.0022 35C71.495 35 63.8892 27.1019 63.8892 17.7C63.8892 7.92181 71.495 0.0237426 81.3827 0.775915C84.0445 0.775915 87.0867 1.15226 89.3685 2.65661V10.1783C87.4672 7.92181 84.425 6.41746 81.3827 6.41746C75.2977 6.79329 70.3541 12.0585 70.7346 18.0759V18.828C70.7346 24.8454 75.6782 29.3585 81.7627 29.3585C84.8054 29.3585 87.4672 27.8541 89.3685 25.5976V33.1193C86.7068 34.2478 84.0445 35 81.0022 35ZM47.1561 9.42615C47.1561 11.3063 48.297 12.0585 52.1002 13.5628C59.706 16.5715 61.6074 18.828 61.9878 23.3411V24.4696C61.6074 30.487 56.6638 35 50.5788 34.6237C46.0152 34.6237 41.452 32.3671 39.1702 28.2305L43.3534 24.0932C44.4943 26.7261 47.1561 28.6063 50.1988 28.6063H50.5788C52.8606 28.6063 55.1424 26.3498 55.1424 23.7174C55.1424 22.2131 54.382 21.0846 53.2411 20.3324C51.7197 19.5802 50.1988 18.828 48.6774 18.4522C42.593 16.5715 40.6911 13.9392 40.6911 9.42615V9.04981C41.0716 3.7846 45.6352 -0.352083 50.9593 0.0237452C54.382 0.0237452 57.8047 1.52809 60.4665 3.78461L57.0437 8.29764C55.5229 6.79329 53.621 5.66529 51.7197 5.66529C49.4379 5.28895 47.5365 7.16963 47.1561 9.42615ZM36.508 34.2478H30.043V0.775915H36.508V34.2478ZM9.50721 0.775915H0V34.2478H9.50721C13.6904 34.6237 17.8735 33.1193 21.2962 30.487C25.0994 27.1019 27.3812 22.5889 27.3812 17.7C27.7612 8.67398 20.5358 1.15226 11.4085 0.775915H9.50721ZM17.1131 25.9739C14.8313 27.8541 11.4085 28.9826 8.3663 28.6063H6.46496V6.41746H8.3663C11.4085 6.04112 14.8313 7.16964 17.1131 9.04981C19.3949 11.3063 20.5358 14.315 20.5358 17.3237C20.5358 20.7087 19.3949 23.7174 17.1131 25.9739ZM91.2704 17.3C91.2704 7.52172 99.2562 0 108.764 0C118.652 0 126.257 7.89806 126.637 17.6763C126.257 27.4545 118.652 35.3521 108.764 34.9763C98.8763 34.5999 91.2704 26.7024 91.2704 17.3Z" fill="white"/>
</svg>
