<svg width="151" height="40" viewBox="0 0 151 40" fill="none" xmlns="http://www.w3.org/2000/svg">
<path d="M18.0134 3.51975e-07H6.33716C5.95065 -0.000254193 5.57672 0.137563 5.28279 0.388617C4.98887 0.639672 4.79425 0.987419 4.73403 1.36924L0.0116678 31.3098C-0.0100413 31.4487 -0.00138696 31.5909 0.0370494 31.7262C0.0754858 31.8615 0.142758 31.9865 0.234285 32.0935C0.325812 32.2004 0.439377 32.2858 0.567159 32.3447C0.694977 32.4033 0.833957 32.4335 0.974575 32.4335H6.54887C6.93567 32.4335 7.30978 32.2953 7.60374 32.044C7.8977 31.7927 8.09218 31.4444 8.15203 31.0622L9.42567 22.9869C9.48537 22.6051 9.67956 22.2571 9.97338 22.0058C10.2668 21.7545 10.6406 21.616 11.0272 21.616H14.7232C22.4148 21.616 26.8537 17.8942 28.013 10.5185C28.5352 7.29164 28.0352 4.75636 26.5243 2.98091C24.8646 1.0312 21.9214 3.51975e-07 18.0134 3.51975e-07ZM19.3603 10.9353C18.7217 15.1247 15.5206 15.1247 12.4254 15.1247H10.6636L11.8996 7.30036C11.9356 7.07127 12.0523 6.86291 12.2286 6.71236C12.4046 6.56182 12.629 6.47927 12.8606 6.47927H13.6683C15.7766 6.47927 17.7657 6.47927 18.7934 7.68109C19.4065 8.39818 19.5941 9.46364 19.3603 10.9353ZM52.9152 10.8004H47.3239C47.0923 10.8004 46.8679 10.8829 46.6919 11.0335C46.5156 11.184 46.3988 11.3927 46.3628 11.6215L46.1152 13.1855L45.7243 12.6185C44.5137 10.8618 41.8145 10.2745 39.1206 10.2745C32.9417 10.2745 27.6646 14.9542 26.6366 21.5185C26.1025 24.7931 26.8621 27.9244 28.7196 30.108C30.4236 32.1156 32.8617 32.9524 35.7621 32.9524C40.7406 32.9524 43.5014 29.7513 43.5014 29.7513L43.2523 31.3047C43.2297 31.4436 43.2381 31.5858 43.2759 31.7211C43.3141 31.8567 43.381 31.9822 43.4723 32.0895C43.5632 32.1964 43.6766 32.2825 43.8043 32.3415C43.9319 32.4007 44.0708 32.4313 44.2116 32.4316H49.2479C49.6348 32.4316 50.009 32.2938 50.3028 32.0422C50.597 31.7909 50.7916 31.4429 50.8512 31.0607L53.873 11.9236C53.8952 11.7851 53.8872 11.6433 53.8494 11.508C53.8116 11.3731 53.7446 11.2476 53.6537 11.1407C53.5625 11.0342 53.4494 10.9484 53.3217 10.8895C53.1945 10.8305 53.0556 10.8004 52.9152 10.8004ZM45.1217 21.6825C44.5821 24.8767 42.0468 27.0211 38.813 27.0211C37.1894 27.0211 35.8919 26.5004 35.0588 25.5138C34.2326 24.5338 33.9185 23.1389 34.1814 21.5851C34.685 18.4182 37.2628 16.204 40.4472 16.204C42.0348 16.204 43.3254 16.7313 44.1759 17.7269C45.0276 18.7324 45.3657 20.1356 45.1217 21.6825ZM82.6937 10.8004H77.0752C76.8101 10.8007 76.5494 10.8658 76.3152 10.9898C76.081 11.1138 75.8807 11.2931 75.7316 11.5124L67.9821 22.9273L64.6974 11.9578C64.5966 11.6233 64.3905 11.3302 64.1101 11.1215C63.8297 10.9131 63.4897 10.8004 63.1403 10.8004H57.6188C57.4639 10.8 57.3112 10.8364 57.173 10.9069C57.0352 10.9778 56.9159 11.0804 56.8257 11.2062C56.7352 11.332 56.6763 11.4778 56.6537 11.6309C56.6308 11.7844 56.6454 11.9407 56.6952 12.0876L62.8843 30.2498L57.0657 38.4633C56.9625 38.6091 56.901 38.7804 56.8886 38.9585C56.8759 39.1367 56.9126 39.3149 56.9948 39.4734C57.0766 39.6324 57.2006 39.7655 57.3534 39.8582C57.5057 39.9509 57.681 40 57.8596 40H63.4716C63.7334 40.0004 63.9916 39.9371 64.2239 39.816C64.4563 39.6945 64.6556 39.5185 64.805 39.3033L83.493 12.3284C83.5941 12.1825 83.6534 12.0116 83.6647 11.8342C83.6756 11.6567 83.6381 11.48 83.5556 11.3225C83.4734 11.1651 83.3497 11.0331 83.1977 10.9411C83.0457 10.8491 82.8716 10.8004 82.6937 10.8004Z" fill="white"/>
<path d="M101.283 0.00170968H89.6053C89.2191 0.00185513 88.8456 0.139853 88.5522 0.390871C88.2584 0.641889 88.0642 0.989419 88.0038 1.37095L83.2816 31.3116C83.2595 31.4502 83.2678 31.592 83.306 31.7273C83.3442 31.8625 83.4111 31.9876 83.5024 32.0945C83.5936 32.2011 83.7067 32.2869 83.8344 32.3458C83.962 32.4047 84.1006 32.4349 84.2409 32.4349H90.2336C90.5038 32.4345 90.7653 32.3378 90.9707 32.1618C91.1758 31.9858 91.3118 31.7425 91.3536 31.4756L92.694 22.9887C92.7536 22.6069 92.9478 22.2589 93.2413 22.0076C93.5351 21.756 93.9089 21.6178 94.2951 21.6178H97.99C105.683 21.6178 110.12 17.8956 111.281 10.5204C111.805 7.29345 111.302 4.75818 109.791 2.98262C108.133 1.03291 105.191 0.00170968 101.283 0.00170968ZM102.63 10.9367C101.993 15.1265 98.7922 15.1265 95.6951 15.1265H93.9351L95.1729 7.30218C95.2082 7.07309 95.3246 6.86436 95.5006 6.71382C95.6766 6.56327 95.9006 6.48073 96.1322 6.48073H96.9398C99.0467 6.48073 101.037 6.48073 102.065 7.68291C102.678 8.4 102.864 9.46509 102.63 10.9367ZM136.183 10.8018H130.595C130.364 10.8015 130.139 10.884 129.963 11.0345C129.787 11.1851 129.671 11.3942 129.636 11.6233L129.389 13.1869L128.996 12.6204C127.785 10.8636 125.088 10.276 122.394 10.276C116.215 10.276 110.939 14.956 109.912 21.5204C109.379 24.7949 110.135 27.9262 111.993 30.1098C113.7 32.1174 116.135 32.9542 119.035 32.9542C124.014 32.9542 126.775 29.7527 126.775 29.7527L126.525 31.3065C126.503 31.4458 126.511 31.588 126.55 31.7236C126.588 31.8593 126.655 31.9851 126.746 32.0924C126.838 32.1996 126.952 32.2854 127.08 32.3444C127.208 32.4033 127.347 32.4335 127.488 32.4335H132.523C132.91 32.4331 133.283 32.2949 133.577 32.0436C133.87 31.792 134.065 31.4444 134.125 31.0622L137.148 11.9255C137.17 11.7862 137.161 11.6444 137.122 11.5091C137.083 11.3738 137.016 11.2484 136.924 11.1418C136.833 11.0349 136.719 10.9495 136.591 10.8909C136.463 10.832 136.324 10.8018 136.183 10.8018ZM128.39 21.6844C127.854 24.8785 125.315 27.0229 122.081 27.0229C120.461 27.0229 119.16 26.5022 118.327 25.5153C117.501 24.5353 117.19 23.1407 117.45 21.5869C117.957 18.42 120.531 16.2055 123.715 16.2055C125.303 16.2055 126.594 16.7331 127.444 17.7284C128.299 18.7342 128.637 20.1375 128.39 21.6844ZM142.775 0.82291L137.983 31.3116C137.961 31.4502 137.969 31.592 138.007 31.7273C138.046 31.8625 138.113 31.9876 138.204 32.0945C138.295 32.2011 138.408 32.2869 138.536 32.3458C138.663 32.4047 138.802 32.4349 138.942 32.4349H143.761C144.561 32.4349 145.241 31.8545 145.363 31.064L150.089 1.12509C150.111 0.986326 150.103 0.844437 150.065 0.709201C150.027 0.573964 149.96 0.448581 149.869 0.341672C149.777 0.234763 149.664 0.148873 149.537 0.0898916C149.409 0.0309098 149.27 0.000254545 149.13 0H143.735C143.503 0.000836364 143.279 0.0840744 143.104 0.234874C142.928 0.385674 142.811 0.59411 142.775 0.82291Z" fill="white"/>
</svg>
