<svg width="224" height="40" viewBox="0 0 224 40" fill="none" xmlns="http://www.w3.org/2000/svg">
<path d="M99.1281 26.7391V18.3889C99.1281 15.2444 97.1223 13.128 93.8947 13.1C92.1947 13.0724 90.4445 13.6 89.2223 15.4666C88.3058 13.9946 86.8556 13.1 84.8281 13.1C83.4112 13.1 82.017 13.5169 80.9334 15.0777V13.4333H78.0392V26.7333H80.9614V19.3613C80.9614 17.0502 82.2392 15.828 84.217 15.828C86.1947 15.828 87.1112 17.0778 87.1112 19.3333V26.7333H90.0334V19.3613C90.0334 17.0502 91.3667 15.828 93.289 15.828C95.2112 15.828 96.2112 17.0778 96.2112 19.3333V26.7333H99.1334L99.1281 26.7391ZM142.367 13.4391H137.639V9.40574H134.717V13.4391H132.017V16.0835H134.717V22.1502C134.717 25.2391 135.911 27.0778 139.333 27.0778C140.584 27.0778 142.033 26.6889 142.95 26.0502L142.117 23.5724C141.256 24.0724 140.306 24.3222 139.556 24.3222C138.111 24.3222 137.633 23.4333 137.633 22.0946V16.0835H142.361V13.4391H142.367ZM167.05 13.1C165.384 13.1 164.295 13.8777 163.545 15.0502V13.4391H160.678V26.7391H163.573V19.2835C163.573 17.0835 164.517 15.8613 166.411 15.8613C166.995 15.8613 167.606 15.9444 168.222 16.1946L169.111 13.4666C168.473 13.2169 167.639 13.1057 167.05 13.1057V13.1ZM129.733 14.4946C128.345 13.5777 126.422 13.1057 124.306 13.1057C120.939 13.1057 118.767 14.7222 118.767 17.3613C118.767 19.5333 120.378 20.8666 123.356 21.2835L124.717 21.4778C126.3 21.7 127.056 22.1169 127.056 22.8666C127.056 23.8946 126 24.4778 124.022 24.4778C122.045 24.4778 120.573 23.8391 119.6 23.0889L118.239 25.3444C119.822 26.5111 121.828 27.0724 124 27.0724C127.839 27.0724 130.067 25.2613 130.067 22.7333C130.067 20.3946 128.311 19.1724 125.422 18.7555L124.061 18.5613C122.811 18.3946 121.806 18.1444 121.806 17.2555C121.806 16.2835 122.75 15.6946 124.339 15.6946C126.039 15.6946 127.678 16.3333 128.484 16.8333L129.733 14.4946ZM207.262 13.1C205.589 13.1 204.506 13.8777 203.756 15.0502V13.4391H200.889V26.7391H203.784V19.2835C203.784 17.0835 204.728 15.8613 206.622 15.8613C207.206 15.8613 207.817 15.9444 208.434 16.1946L209.322 13.4666C208.684 13.2169 207.85 13.1057 207.262 13.1057V13.1ZM169.973 20.0889C169.973 24.1222 172.784 27.0724 177.067 27.0724C179.073 27.0724 180.406 26.628 181.85 25.4835L180.462 23.1444C179.378 23.9222 178.234 24.3391 176.984 24.3391C174.673 24.3111 172.978 22.6391 172.978 20.0835C172.978 17.528 174.678 15.8555 176.984 15.828C178.234 15.828 179.378 16.2444 180.462 17.0222L181.85 14.6835C180.406 13.5444 179.067 13.0946 177.067 13.0946C172.784 13.0946 169.973 16.0444 169.973 20.0778V20.0889ZM197.073 20.0889V13.4391H194.178V15.0502C193.262 13.8555 191.867 13.1 189.978 13.1C186.25 13.1 183.328 16.0222 183.328 20.0835C183.328 24.1444 186.25 27.0667 189.978 27.0667C191.873 27.0667 193.262 26.3169 194.178 25.1169V26.728H197.073V20.0778V20.0889ZM186.306 20.0889C186.306 17.7502 187.834 15.8333 190.339 15.8333C192.845 15.8333 194.345 17.6724 194.345 20.0889C194.345 22.5058 192.734 24.3444 190.339 24.3444C187.945 24.3444 186.306 22.4222 186.306 20.0889ZM151.384 13.1C147.489 13.1 144.761 15.9391 144.761 20.0835C144.761 24.228 147.6 27.0667 151.578 27.0667C153.584 27.0667 155.417 26.5667 157.033 25.2L155.617 23.0555C154.506 23.9444 153.084 24.4444 151.75 24.4444C149.884 24.4444 148.189 23.5835 147.773 21.1889H157.65C157.678 20.828 157.706 20.4666 157.706 20.0778C157.678 15.9333 155.117 13.0946 151.389 13.0946L151.384 13.1ZM151.328 15.6889C153.195 15.6889 154.389 16.8555 154.695 18.9169H147.795C148.1 16.9946 149.267 15.6889 151.328 15.6889ZM223.928 20.0889V8.09463H221.034V15.0502C220.117 13.8555 218.722 13.1 216.834 13.1C213.106 13.1 210.184 16.0222 210.184 20.0835C210.184 24.1444 213.106 27.0667 216.834 27.0667C218.728 27.0667 220.117 26.3169 221.034 25.1169V26.728H223.928V20.0778V20.0889ZM213.162 20.0889C213.162 17.7502 214.689 15.8333 217.195 15.8333C219.7 15.8333 221.2 17.6724 221.2 20.0889C221.2 22.5058 219.589 24.3444 217.195 24.3444C214.8 24.3444 213.162 22.4222 213.162 20.0889ZM115.433 20.0889V13.4391H112.539V15.0502C111.622 13.8555 110.228 13.1 108.339 13.1C104.611 13.1 101.689 16.0222 101.689 20.0835C101.689 24.1444 104.611 27.0667 108.339 27.0667C110.233 27.0667 111.622 26.3169 112.539 25.1169V26.728H115.433V20.0778V20.0889ZM104.667 20.0889C104.667 17.7502 106.195 15.8333 108.7 15.8333C111.206 15.8333 112.706 17.6724 112.706 20.0889C112.706 22.5058 111.095 24.3444 108.7 24.3444C106.306 24.3444 104.667 22.4222 104.667 20.0889ZM30.5889 36.2555C30.7445 36.3889 30.9111 36.5222 31.0723 36.6555C27.9 38.7667 24.0945 40 20 40C8.95557 40 0 31.0444 0 20C0 8.95552 8.95557 0 20 0C24.0945 0 27.9 1.23329 31.0723 3.3444C30.9111 3.47774 30.7445 3.60573 30.5889 3.7444C25.8778 7.84441 23.1723 13.7724 23.1723 20C23.1723 26.228 25.8723 32.1555 30.5889 36.2555ZM44.7222 0C40.628 0 36.8222 1.23329 33.6502 3.3444C33.8111 3.47774 33.9778 3.60573 34.1333 3.7444C38.8444 7.84441 41.5502 13.7666 41.5502 20C41.5502 26.2333 38.8502 32.1555 34.1391 36.2555C33.9836 36.3889 33.8169 36.5222 33.6556 36.6555C36.828 38.7667 40.6333 40 44.728 40C55.7725 40 64.728 31.0444 64.728 20C64.728 8.95552 55.7667 0 44.7222 0ZM32.3613 4.28352C32.1058 4.48352 31.85 4.69463 31.6056 4.91107C27.3889 8.57774 24.7223 13.9777 24.7223 20C24.7223 26.0222 27.3889 31.4222 31.6056 35.0889C31.85 35.3058 32.1058 35.5111 32.3613 35.7169C32.6169 35.5111 32.8724 35.3058 33.1169 35.0889C37.3333 31.4222 40 26.0222 40 20C40 13.9777 37.3333 8.57774 33.1169 4.91107C32.8724 4.69463 32.6169 4.48885 32.3613 4.28352Z" fill="white"/>
</svg>
