<svg width="188" height="40" viewBox="0 0 188 40" fill="none" xmlns="http://www.w3.org/2000/svg">
<path d="M186.783 25.5112C186.899 25.5112 187.011 25.5334 187.116 25.5778C187.222 25.6223 187.311 25.6832 187.388 25.7609C187.466 25.8387 187.527 25.9276 187.571 26.0276C187.616 26.1276 187.638 26.2387 187.638 26.3556C187.638 26.472 187.616 26.5778 187.571 26.6832C187.527 26.7832 187.466 26.872 187.388 26.9498C187.311 27.0276 187.222 27.0889 187.116 27.1334C187.011 27.1778 186.899 27.2 186.783 27.2C186.666 27.2 186.549 27.1778 186.444 27.1334C186.338 27.0889 186.249 27.0276 186.171 26.9498C186.094 26.872 186.033 26.7832 185.988 26.6832C185.944 26.5832 185.922 26.472 185.922 26.3556C185.922 26.2387 185.944 26.1276 185.988 26.0276C186.033 25.9223 186.094 25.8334 186.171 25.7609C186.249 25.6832 186.338 25.6223 186.444 25.5778C186.549 25.5334 186.66 25.5112 186.783 25.5112ZM186.783 27.0112C186.871 27.0112 186.96 26.9943 187.038 26.9609C187.116 26.9276 187.188 26.8778 187.244 26.8223C187.305 26.7609 187.349 26.6943 187.383 26.6112C187.416 26.5334 187.433 26.4445 187.433 26.3556C187.433 26.2667 187.416 26.1778 187.383 26.1C187.349 26.0223 187.305 25.9498 187.244 25.8889C187.183 25.8276 187.116 25.7832 187.038 25.7498C186.96 25.7165 186.877 25.7001 186.783 25.7001C186.688 25.7001 186.605 25.7165 186.522 25.7498C186.438 25.7832 186.371 25.8276 186.311 25.8889C186.249 25.9498 186.205 26.0165 186.171 26.1C186.138 26.1778 186.122 26.2667 186.122 26.3556C186.122 26.4445 186.138 26.5334 186.171 26.6112C186.205 26.6889 186.249 26.7609 186.311 26.8223C186.371 26.8832 186.438 26.9276 186.522 26.9609C186.605 26.9943 186.688 27.0112 186.783 27.0112ZM186.833 25.9556C186.933 25.9556 187.011 25.9778 187.066 26.0223C187.122 26.0667 187.149 26.1276 187.149 26.2054C187.149 26.272 187.127 26.3223 187.083 26.3667C187.038 26.4112 186.977 26.4334 186.899 26.4445L187.155 26.7387H186.955L186.716 26.4445H186.638V26.7387H186.471V25.9556H186.833ZM186.638 26.1054V26.3165H186.833C186.877 26.3165 186.911 26.3054 186.938 26.2889C186.966 26.272 186.977 26.2445 186.977 26.2112C186.977 26.1778 186.966 26.1498 186.938 26.1334C186.911 26.1165 186.877 26.1054 186.833 26.1054H186.638ZM99.1162 26.7387V18.389C99.1162 15.2445 97.1108 13.1276 93.8828 13.1001C92.1828 13.0721 90.4331 13.6001 89.2109 15.4667C88.294 13.9943 86.8442 13.1001 84.8162 13.1001C83.3998 13.1001 82.0051 13.5165 80.922 15.0779V13.4334H78.0273V26.7334H80.9496V19.361C80.9496 17.0499 82.2273 15.8276 84.2051 15.8276C86.1829 15.8276 87.0998 17.0779 87.0998 19.3334V26.7334H90.022V19.361C90.022 17.0499 91.3553 15.8276 93.2775 15.8276C95.1997 15.8276 96.1997 17.0779 96.1997 19.3334V26.7334H99.1219L99.1162 26.7387ZM115.422 20.089V13.4388H112.527V15.0556C111.611 13.861 110.216 13.1054 108.327 13.1054C104.6 13.1054 101.677 16.0276 101.677 20.089C101.677 24.1498 104.6 27.072 108.327 27.072C110.222 27.072 111.611 26.3223 112.527 25.1223V26.7387H115.422V20.089ZM104.655 20.089C104.655 17.7499 106.183 15.8334 108.689 15.8334C111.194 15.8334 112.694 17.6721 112.694 20.089C112.694 22.5054 111.083 24.3445 108.689 24.3445C106.294 24.3445 104.655 22.4223 104.655 20.089ZM177.344 13.089C178.371 13.089 179.322 13.2668 180.199 13.6223C181.077 13.9779 181.833 14.4668 182.471 15.0943C183.111 15.7165 183.611 16.4556 183.971 17.3112C184.333 18.161 184.516 19.089 184.516 20.089C184.516 21.089 184.333 22.0165 183.971 22.8667C183.611 23.7165 183.111 24.4556 182.471 25.0832C181.833 25.7054 181.077 26.2 180.199 26.5556C179.322 26.9112 178.371 27.0889 177.344 27.0889C176.316 27.0889 175.366 26.9112 174.488 26.5556C173.611 26.2 172.86 25.7112 172.222 25.0832C171.583 24.4556 171.088 23.7223 170.727 22.8667C170.366 22.0165 170.188 21.089 170.188 20.089C170.188 19.089 170.371 18.161 170.727 17.3112C171.088 16.461 171.588 15.7223 172.222 15.0943C172.855 14.4668 173.611 13.9779 174.488 13.6223C175.366 13.2668 176.316 13.089 177.344 13.089ZM177.344 15.8276C176.749 15.8276 176.199 15.9334 175.694 16.1387C175.183 16.3499 174.744 16.6387 174.377 17.0112C174.005 17.389 173.716 17.8334 173.499 18.361C173.288 18.8832 173.177 19.461 173.177 20.089C173.177 20.7165 173.283 21.2943 173.499 21.8165C173.711 22.3387 174.005 22.7889 174.377 23.1609C174.749 23.5334 175.188 23.8276 175.694 24.0387C176.205 24.2498 176.755 24.3498 177.344 24.3498C177.933 24.3498 178.488 24.2445 178.994 24.0387C179.505 23.8276 179.944 23.5387 180.322 23.1609C180.694 22.7889 180.988 22.3387 181.205 21.8165C181.416 21.2943 181.527 20.7165 181.527 20.089C181.527 19.461 181.422 18.8832 181.205 18.361C180.994 17.8387 180.699 17.389 180.322 17.0112C179.949 16.6387 179.505 16.3445 178.994 16.1387C178.483 15.9276 177.933 15.8276 177.344 15.8276ZM131.166 20.089C131.138 15.9445 128.577 13.1054 124.849 13.1054C121.122 13.1054 118.227 15.9445 118.227 20.089C118.227 24.2334 121.066 27.072 125.044 27.072C127.049 27.072 128.883 26.572 130.5 25.2054L129.083 23.0609C127.972 23.9498 126.549 24.4498 125.216 24.4498C123.349 24.4498 121.655 23.5889 121.238 21.1943H131.116C131.144 20.8334 131.172 20.4721 131.172 20.0832L131.166 20.089ZM121.261 18.9223C121.566 17.0001 122.733 15.6943 124.794 15.6943C126.661 15.6943 127.855 16.861 128.161 18.9223H121.261ZM144.611 14.4943C143.222 13.5779 141.3 13.1054 139.183 13.1054C135.816 13.1054 133.644 14.7223 133.644 17.361C133.644 19.5334 135.255 20.8667 138.233 21.2832L139.594 21.4778C141.177 21.7001 141.933 22.1165 141.933 22.8667C141.933 23.8943 140.877 24.4832 138.9 24.4832C136.922 24.4832 135.449 23.8445 134.477 23.0943L133.116 25.3498C134.7 26.5165 136.705 27.0778 138.877 27.0778C142.716 27.0778 144.944 25.2667 144.944 22.7387C144.944 20.4001 143.188 19.1779 140.3 18.761L138.938 18.5667C137.688 18.4001 136.683 18.1499 136.683 17.261C136.683 16.289 137.627 15.7001 139.216 15.7001C140.911 15.7001 142.555 16.3387 143.36 16.8387L144.611 14.5001V14.4943ZM157.26 13.4388H152.533V9.40544H149.611V13.4388H146.911V16.0832H149.611V22.1498C149.611 25.2387 150.805 27.0778 154.227 27.0778C155.477 27.0778 156.927 26.6889 157.844 26.0498L157.011 23.5721C156.149 24.0721 155.2 24.3223 154.449 24.3223C153.005 24.3223 152.527 23.4334 152.527 22.0943V16.0832H157.255V13.4388H157.26ZM167.277 13.1054C165.611 13.1054 164.522 13.8832 163.772 15.0556V13.4388H160.905V26.7387H163.8V19.2832C163.8 17.0832 164.744 15.861 166.638 15.861C167.222 15.861 167.833 15.9445 168.449 16.1943L169.338 13.4668C168.7 13.2165 167.866 13.1054 167.277 13.1054ZM62.8109 32.3942V31.7498H63.0718V31.6165H62.4109V31.7498H62.6718V32.3942H62.8163H62.8109ZM64.0941 32.3942V31.6165H63.8941L63.6607 32.1498L63.4274 31.6165H63.2274V32.3942H63.3718V31.8111L63.5887 32.3165H63.7385L63.9554 31.8111V32.4H64.0998L64.0941 32.3942ZM30.5888 36.2556C30.7444 36.3889 30.9111 36.5222 31.0719 36.6556C27.8999 38.7667 24.0942 40 20 40C8.95553 40 0 31.0445 0 20.0001C0 8.95566 8.95553 0 20 0C24.0942 0 27.8999 1.23333 31.0719 3.34457C30.9111 3.4779 30.7444 3.60546 30.5888 3.74457C25.8777 7.84455 23.172 13.7721 23.172 20.0001C23.172 26.2276 25.872 32.1556 30.5888 36.2556ZM44.7221 0C40.6275 0 36.8221 1.23333 33.6497 3.34457C33.811 3.4779 33.9777 3.60546 34.1333 3.74457C38.8444 7.84455 41.5497 13.7668 41.5497 20.0001C41.5497 26.2334 38.8497 32.1556 34.1386 36.2556C33.983 36.3889 33.8164 36.5222 33.6555 36.6556C36.8275 38.7667 40.6332 40 44.7275 40C55.7719 40 64.7274 31.0445 64.7274 20.0001C64.7274 8.95566 55.7665 0 44.7221 0ZM32.3608 4.28323C32.1053 4.48323 31.8497 4.69434 31.6053 4.91123C27.3888 8.57788 24.7222 13.9779 24.7222 20.0001C24.7222 26.0223 27.3888 31.4223 31.6053 35.0889C31.8497 35.3054 32.1053 35.5111 32.3608 35.7165C32.6164 35.5111 32.8719 35.3054 33.1164 35.0889C37.3333 31.4223 39.9999 26.0223 39.9999 20.0001C39.9999 13.9779 37.3333 8.57788 33.1164 4.91123C32.8719 4.69434 32.6164 4.48901 32.3608 4.28323Z" fill="white"/>
</svg>
