<svg width="124" height="40" viewBox="0 0 124 40" fill="none" xmlns="http://www.w3.org/2000/svg">
<path d="M6.25607 0L0 14.5455H4.07303L5.22734 11.6328H11.9379L13.0862 14.5455H17.249L10.999 0H6.25607ZM8.57068 3.3852L10.6161 8.47499H6.51922L8.57068 3.3852Z" fill="white"/>
<path d="M17.6768 14.5458V0L23.465 0.0214872L26.8314 9.39955L30.1173 0H35.859V14.5458H32.2225V3.82779L28.3678 14.5458H25.1788L21.3132 3.82779V14.5458H17.6768Z" fill="white"/>
<path d="M38.3457 14.5458V0H50.2119V3.25362H42.0204V5.7417H50.0205V8.80381H42.0204V11.3876H50.2119V14.5458H38.3457Z" fill="white"/>
<path d="M52.3242 0.00292969V14.5485H55.9607V9.3811H57.4916L61.8518 14.5485H66.2957L61.5109 9.18967C63.4744 9.02395 65.5002 7.33853 65.5002 4.72188C65.5002 1.66097 63.0975 0.00292969 60.4163 0.00292969H52.3242ZM55.9607 3.25653H60.1171C61.1143 3.25653 61.8398 4.03653 61.8398 4.78765C61.8398 5.75401 60.9 6.31877 60.1711 6.31877H55.9607V3.25653Z" fill="white"/>
<path d="M70.673 14.5458H66.96V0H70.673V14.5458Z" fill="white"/>
<path d="M79.4915 14.5458H78.69C74.8124 14.5458 72.458 11.4905 72.458 7.33263C72.458 3.07196 74.7861 0 79.6829 0H83.7022V3.44501H79.536C77.5482 3.44501 76.1422 4.99636 76.1422 7.36852C76.1422 10.1856 77.7499 11.3685 80.0658 11.3685H81.0227L79.4915 14.5458Z" fill="white"/>
<path d="M87.4122 0.00292969L81.1562 14.5485H85.2293L86.3836 11.6358H93.0942L94.2425 14.5485H98.4053L92.155 0.00292969H87.4122ZM89.7269 3.38813L91.7724 8.47789H87.6754L89.7269 3.38813Z" fill="white"/>
<path d="M98.8164 14.5458V0H103.44L109.343 9.13896V0H112.979V14.5458H108.505L102.453 5.16754V14.5458H98.8164Z" fill="white"/>
<path d="M26.5029 39.9974V25.4517H38.3689V28.7052H30.1774V31.1933H38.1777V34.2558H30.1774V36.8393H38.3689V39.9974H26.5029Z" fill="white"/>
<path d="M84.6465 39.9974V25.4517H96.5127V28.7052H88.3212V31.1933H96.283V34.2558H88.3212V36.8393H96.5127V39.9974H84.6465Z" fill="white"/>
<path d="M38.8015 39.9974L44.5792 32.8143L38.6641 25.4517H43.2454L46.7681 30.0033L50.3028 25.4517H54.7047L48.8674 32.7245L54.6556 39.9974H50.0748L46.6544 35.5175L43.3171 39.9974H38.8015Z" fill="white"/>
<path d="M55.0898 25.4546V40.0001H58.822V35.4067H62.6499C65.8886 35.4067 68.3436 33.6887 68.3436 30.3471C68.3436 27.5787 66.418 25.4546 63.1222 25.4546H55.0898ZM58.822 28.7442H62.853C63.8994 28.7442 64.6474 29.3853 64.6474 30.4188C64.6474 31.3894 63.9034 32.0934 62.841 32.0934H58.822V28.7442Z" fill="white"/>
<path d="M69.915 25.4517V39.9974H73.5515V34.8298H75.0824L79.4426 39.9974H83.8865L79.1017 34.6383C81.0655 34.4726 83.091 32.7874 83.091 30.1707C83.091 27.1097 80.6886 25.4517 78.0071 25.4517H69.915ZM73.5515 28.7052H77.7082C78.7054 28.7052 79.4306 29.4853 79.4306 30.2364C79.4306 31.2028 78.4908 31.7676 77.7619 31.7676H73.5515V28.7052Z" fill="white"/>
<path d="M98.1902 39.9974V36.8393H105.468C106.545 36.8393 107.011 36.2576 107.011 35.6192C107.011 35.0078 106.546 34.3898 105.468 34.3898H102.179C99.3203 34.3898 97.7285 32.648 97.7285 30.033C97.7285 27.7009 99.1863 25.4517 103.434 25.4517H110.516L108.984 28.7244H102.86C101.689 28.7244 101.329 29.3387 101.329 29.9256C101.329 30.5284 101.774 31.1933 102.669 31.1933H106.114C109.3 31.1933 110.683 33.0008 110.683 35.3681C110.683 37.9131 109.142 39.9974 105.94 39.9974H98.1902Z" fill="white"/>
<path d="M111.515 39.9974V36.8393H118.793C119.87 36.8393 120.336 36.2576 120.336 35.6192C120.336 35.0078 119.871 34.3898 118.793 34.3898H115.504C112.646 34.3898 111.054 32.648 111.054 30.033C111.054 27.7009 112.512 25.4517 116.76 25.4517H123.841L122.31 28.7244H116.185C115.015 28.7244 114.654 29.3387 114.654 29.9256C114.654 30.5284 115.1 31.1933 115.994 31.1933H119.439C122.626 31.1933 124.009 33.0008 124.009 35.3681C124.009 37.9131 122.468 39.9974 119.265 39.9974H111.515Z" fill="white"/>
</svg>
