<svg width="157" height="40" viewBox="0 0 157 40" fill="none" xmlns="http://www.w3.org/2000/svg">
<path d="M30.4535 0.95937C28.5219 3.39089 25.9768 8.1403 22.1136 16.5938C17.1142 27.4561 14.66 32.0237 12.7284 34.0462C10.3196 36.5459 7.1609 37.0004 5.18387 35.137C4.43396 34.4325 4.38851 34.2962 4.38851 32.9327C4.38851 31.342 4.86572 30.2512 5.79743 29.7513C6.09285 29.5922 7.04727 29.4558 7.9108 29.4331H9.50152V28.6605C9.50152 27.5243 8.52436 27.0016 6.20647 26.8653C3.32046 26.7062 1.79792 27.4334 0.638974 29.5695C0.0935871 30.6148 -0.0200352 31.0238 0.00268929 32.5009C0.00268929 34.7734 0.61625 36.2277 2.27514 37.7276C3.77495 39.091 5.11569 39.5455 7.68356 39.5455C13.3647 39.5455 16.5007 36.7959 21.5455 27.3652C22.6135 25.3882 23.4771 23.9111 23.4771 24.0929C23.4771 25.1609 22.659 29.4558 21.7955 33.0463C20.3638 38.9774 20.3638 38.932 21.1137 39.5228C21.4546 39.7728 21.8636 40 22.0454 40C22.8862 40 26.2949 35.5915 29.1355 30.7966C30.7034 28.1833 31.3852 27.2061 31.1125 27.956C31.0443 28.1378 30.8852 29.4331 30.7716 30.842C30.5216 33.8189 30.7716 36.3868 31.4079 37.8412C31.9987 39.1819 33.1804 39.75 35.3165 39.7728C37.1799 39.7728 38.6116 39.3637 40.2932 38.3184C41.0203 37.8639 41.7475 37.5003 41.9293 37.5003C42.0884 37.5003 42.5202 37.8185 42.8838 38.182C44.4063 39.7273 47.565 40 50.1556 38.7956L51.4736 38.182L52.1553 38.7502C53.4279 39.8182 54.905 39.7955 57.2229 38.6593C59.2681 37.6367 61.3815 35.4324 65.3355 30.1149C68.4488 25.9336 69.3805 24.911 69.3805 25.729C69.3805 25.8881 68.6078 27.0016 67.6761 28.1833C65.8355 30.5012 64.1311 33.5463 63.6994 35.2733C63.3358 36.6822 63.6766 37.6821 64.8583 38.7274C65.6764 39.4773 65.8582 39.5455 67.1762 39.5455C68.9942 39.5455 70.4713 39.1137 72.3801 37.9775L73.8799 37.0913L74.7435 37.9775C76.016 39.2728 77.2659 39.8182 79.0157 39.7955C80.8791 39.7955 82.4016 39.2046 85.0604 37.5003C86.242 36.7504 87.2646 36.1368 87.3555 36.1368C87.4464 36.1368 87.4692 36.6822 87.401 37.3412C87.2874 38.3866 87.3555 38.6365 87.81 39.1592C88.1054 39.5001 88.6736 39.8409 89.0599 39.9091C90.287 40.1363 91.0142 39.2501 93.2639 34.6143C95.4454 30.1603 96.6726 28.5014 98.8541 27.0698C100.74 25.8199 100.74 26.0926 98.7859 29.9103C96.9225 33.5463 95.9681 35.796 95.9681 36.5232C95.9681 38.0002 97.8542 39.7728 99.4222 39.7728C100.536 39.7728 101.558 39.341 103.24 38.1593L104.581 37.2276L105.74 38.2502C106.376 38.8183 107.262 39.4092 107.717 39.5682C109.057 40 110.966 39.7046 112.989 38.7047L114.807 37.8412L115.829 38.7956C117.465 40.3636 118.693 40.1363 122.01 37.7276C123.033 36.9776 123.919 36.3641 123.987 36.3641C124.033 36.3641 124.192 36.7731 124.351 37.2731C124.487 37.773 124.987 38.5229 125.442 38.9774C126.328 39.8409 127.328 40.1363 128.623 39.9318C129.896 39.7273 132.532 38.3638 133.941 37.1822C134.645 36.6141 135.281 36.1368 135.35 36.1368C135.44 36.1368 135.668 36.4777 135.872 36.864C137.258 39.6137 140.122 40.5681 142.917 39.2046C145.962 37.7048 150.62 32.0919 150.189 30.3876C149.961 29.4104 149.439 29.4786 148.393 30.6148C145.576 33.728 144.371 34.887 143.349 35.4778C141.394 36.6141 140.235 36.2505 139.826 34.3871C139.395 32.5009 140.167 31.4102 144.167 28.3423C146.621 26.4789 150.802 22.3431 152.211 20.4342C154.097 17.8891 155.961 13.5942 156.029 11.6399C156.074 10.4127 155.62 10.0037 154.12 10.0037C153.279 10.0037 152.802 10.1628 151.848 10.8218C148.689 12.9352 144.962 16.5256 142.644 19.6616C141.372 21.3887 140.553 22.7067 137.486 28.0015C135.077 32.1146 132.327 35.3188 130.6 36.0459C128.964 36.7277 127.851 35.4551 128.123 33.2736C128.305 31.6828 128.805 31.1147 131.964 28.865C136.69 25.4791 140.167 22.0704 142.008 18.9799C142.94 17.4119 144.439 14.2305 144.917 12.7761C145.257 11.7762 145.28 11.4581 145.053 10.9127C144.462 9.45832 142.167 9.59467 139.735 11.2308C134.85 14.5032 130.009 20.5479 125.942 28.4332C124.442 31.3874 123.76 32.41 122.783 33.4099C120.715 35.4551 119.147 36.0005 119.147 34.6825C119.147 34.0007 119.556 33.0463 122.192 27.7061C123.26 25.5018 124.146 23.502 124.146 23.2293C124.146 22.5931 123.51 22.2749 122.215 22.2749C121.419 22.2749 121.033 22.4113 120.624 22.8203C120.079 23.3657 120.079 23.3657 119.511 22.9339C118.261 21.9568 115.307 22.0022 113.125 23.0703C110.625 24.2747 107.012 27.9106 105.331 30.9102C103.99 33.2963 100.74 36.4323 100.74 35.3188C100.74 35.1142 101.308 33.9326 102.013 32.7054C104.808 27.7742 105.353 25.6154 104.399 23.4793C103.626 21.7977 102.308 21.5932 99.9222 22.843C99.0814 23.2748 98.3769 23.6157 98.3314 23.5702C98.3087 23.5475 98.6269 22.7067 99.0586 21.7068C101.263 16.6393 103.467 11.1627 103.467 10.7309C103.467 9.50377 101.308 9.072 100.172 10.0492C99.6495 10.5264 97.1952 15.5939 92.9912 24.9564C92.1958 26.7516 91.196 28.6378 90.7642 29.1377C90.0597 29.9558 87.0147 32.2737 86.6511 32.2737C86.5602 32.2737 86.3557 31.4783 86.2193 30.5012C86.083 29.524 85.7648 28.0697 85.5376 27.2516L85.1285 25.7972L86.083 24.5474C86.6056 23.8656 87.3101 22.8658 87.6737 22.3204C88.2872 21.3659 88.31 21.3432 87.8782 20.866C87.4692 20.4115 86.242 19.7752 85.7421 19.7752C85.2422 19.7752 83.4469 21.7068 79.2656 26.7062C76.8796 29.5695 74.2435 32.5691 73.4482 33.3645C71.812 34.9779 69.585 36.205 68.5624 36.0914C66.949 35.9096 67.9034 33.5463 71.562 28.5923C72.88 26.8198 74.1072 25.07 74.3117 24.7064C75.0389 23.2975 74.0163 22.2749 71.8802 22.2749C71.1757 22.2749 70.7439 22.184 70.7439 22.0022C70.7439 21.8659 70.9939 21.116 71.2893 20.3661C71.8347 19.0026 71.9483 18.2754 71.9029 16.5029C71.8802 15.753 71.7211 15.4349 70.8348 14.594C69.8122 13.6396 69.7213 13.5942 68.676 13.6851C67.4035 13.8214 66.1991 14.6395 65.5855 15.753C64.9947 16.821 65.0174 20.5706 65.6082 22.3204L66.0627 23.5929L65.2674 24.8882C63.8357 27.2516 60.3816 31.6828 58.7227 33.2281C57.2683 34.6143 56.2003 35.1597 56.2003 34.5461C56.2003 34.4098 57.382 32.001 58.8136 29.1832C60.2452 26.388 61.4269 23.8429 61.4269 23.5702C61.4269 23.2748 61.3133 22.9339 61.1542 22.7749C60.7679 22.3885 59.0181 22.434 58.2 22.8658C57.5638 23.1839 57.4274 23.1839 56.6775 22.8885C55.4049 22.3431 54.246 22.2295 52.8371 22.5022C49.0194 23.2975 45.1335 26.6153 42.7701 31.1147C42.3611 31.9101 41.5885 33.0463 41.0658 33.6371C39.9977 34.8188 37.589 36.1368 36.4982 36.1368C35.1574 36.1368 34.4757 34.5234 34.6802 31.7283C35.0438 26.5698 38.1798 19.3662 45.1335 7.82216C47.2923 4.23169 48.7012 1.6411 48.7012 1.30024C48.7012 0.55033 47.9968 0.141289 47.0423 0.368534C46.5197 0.482156 45.4743 1.34569 43.2473 3.61813C38.9297 7.95851 35.5892 12.1398 30.2035 19.9343C29.2263 21.3432 28.3855 22.5022 28.3174 22.5022C28.1356 22.5022 28.4537 19.0935 28.8173 17.0483C29.5445 12.9579 30.5671 9.57194 32.3396 5.23157C33.6349 2.11832 33.7712 0.936645 32.9759 0.368534C32.0669 -0.267751 31.317 -0.0859554 30.4535 0.95937ZM140.963 14.5032C140.963 15.1394 137.599 19.9343 135.759 21.9113C134.35 23.4111 132.123 25.32 131.941 25.1609C131.555 24.7519 135.327 19.7525 138.44 16.5256C140.44 14.4804 140.963 14.0487 140.963 14.5032ZM151.848 14.9349C151.257 16.5256 148.984 19.8888 147.348 21.6841C145.985 23.1157 143.712 25.0928 143.553 24.9337C143.212 24.5928 145.848 20.7978 148.984 17.0937C151.189 14.4804 152.347 13.6169 151.848 14.9349ZM69.0169 16.9574C69.2214 17.5028 69.176 18.5027 68.9033 19.298C68.6306 20.0479 68.1534 20.2297 67.9261 19.6389C67.6989 19.0708 67.767 17.5255 68.017 17.0256C68.3124 16.5029 68.8351 16.4575 69.0169 16.9574ZM54.8823 25.57C55.4958 26.9334 53.8824 31.0466 51.8826 33.2508C50.6782 34.5689 48.4512 35.9096 47.4286 35.9096C46.0425 35.9096 45.588 34.5916 46.3606 32.6827C47.4514 29.9558 50.3147 26.4108 52.1781 25.4791C53.5188 24.8201 54.5414 24.8428 54.8823 25.57ZM117.284 25.729C117.852 26.9107 116.784 30.0467 114.943 32.6145C113.852 34.1371 111.762 35.7505 110.466 36.0232C109.853 36.1596 109.648 36.0914 109.194 35.546C108.717 35.0006 108.648 34.7506 108.762 33.7053C109.035 31.1375 112.148 26.8425 114.67 25.57C116.102 24.8655 116.875 24.8882 117.284 25.729ZM81.6744 30.4784C81.7653 30.7739 81.8335 31.8874 81.8562 32.9554C81.8789 35.0688 81.5381 35.9778 80.4246 36.705C79.7201 37.1822 79.1293 37.0004 78.3566 36.1141C77.1977 34.7279 77.4249 34.0235 80.0155 30.9557C81.0836 29.6831 81.4244 29.5922 81.6744 30.4784Z" fill="white"/>
</svg>
