<svg width="151" height="40" viewBox="0 0 151 40" fill="none" xmlns="http://www.w3.org/2000/svg">
<path fill-rule="evenodd" clip-rule="evenodd" d="M0 20.1736C0 31.0873 9.10784 40.0525 20.1736 39.9998H25.36C36.2947 39.9998 46.2754 31.0829 46.2754 20.1736C46.2754 8.24342 36.2947 -0.00143473 25.36 1.87267e-07H20.1736C9.10784 -0.00143473 0 8.24776 0 20.1736ZM1.91101 19.9657C1.91241 9.85386 10.1061 1.65896 20.218 1.65469C30.3311 1.65896 38.5261 9.85386 38.5288 19.9657C38.5261 30.0775 30.3311 38.2712 20.218 38.2725C10.1061 38.2699 1.91241 30.0775 1.91101 19.9657ZM16.061 9.13474V30.7923C11.7095 29.1174 8.62367 24.9085 8.6123 19.9657C8.62367 15.0216 11.7095 10.8109 16.061 9.13474ZM24.3702 9.1334C28.7247 10.8039 31.8161 15.0202 31.8248 19.9657C31.8161 24.9115 28.7247 29.1248 24.3702 30.7966V9.1334ZM144.622 11.3415C143.466 11.3415 142.328 12.1417 141.487 12.8538V5.17561C141.487 5.00615 141.447 4.87941 141.321 4.87941C141.271 4.87941 141.161 4.94138 141.01 5.02631C140.963 5.05287 140.912 5.08167 140.857 5.1115C140.414 5.36782 139.534 5.74377 138.69 6.01717V6.35467L138.768 6.3769C139.509 6.5882 139.803 6.67206 139.803 7.99648V17.0401C139.803 18.3219 139.697 19.5452 139.511 20.7852L139.951 21.0162L140.582 20.5346C140.664 20.5693 140.753 20.6101 140.848 20.6541C141.392 20.905 142.182 21.2695 143.504 21.2695C146.516 21.2695 148.535 18.5114 148.535 15.7574C148.535 13.4675 147.063 11.3415 144.622 11.3415ZM143.655 20.7242C142.244 20.7242 141.487 19.3784 141.487 18.5781V13.4702C142.055 12.9846 142.705 12.4791 143.487 12.4791C145.128 12.4791 146.854 14.3702 146.854 16.6417C146.854 18.5141 145.908 20.7242 143.655 20.7242ZM123.793 20.9548V20.4082H124.194C124.783 20.4082 125.205 20.4082 125.205 19.7117V7.99949C125.205 6.67536 124.909 6.59117 124.167 6.37993L124.088 6.35758V6.0201C124.928 5.7467 125.813 5.37076 126.256 5.11444C126.314 5.08287 126.368 5.0525 126.417 5.02467C126.565 4.94212 126.671 4.88235 126.718 4.88235C126.847 4.88235 126.886 5.00906 126.886 5.17851V19.7104C126.886 20.4068 127.35 20.4068 127.94 20.4068H128.297V20.9548C127.947 20.9548 127.59 20.9451 127.228 20.9347C126.854 20.9244 126.473 20.9137 126.087 20.9137C125.398 20.9137 124.712 20.9314 124.007 20.9494L123.793 20.9548ZM123.036 10.0781H122.51C122.111 7.61907 120.364 6.62934 118.01 6.62934C115.657 6.62934 112.075 8.24843 112.075 13.295C112.075 17.547 115.11 20.5987 118.345 20.5987C120.427 20.5987 122.154 19.1691 122.575 16.959L123.057 17.0842L122.575 20.1559C121.692 20.7042 119.312 21.2708 117.923 21.2708C113.002 21.2708 109.892 18.0939 109.892 13.3621C109.892 9.04864 113.738 5.9558 117.864 5.9558C119.568 5.9558 121.207 6.50404 122.828 7.07213L123.036 10.0781ZM66.4249 20.4082H66.0261V20.9564L66.2237 20.9514C66.9335 20.9331 67.6269 20.9151 68.319 20.9151C68.7024 20.9151 69.0805 20.9257 69.4536 20.9361C69.816 20.9464 70.1737 20.9564 70.5261 20.9564V20.4082H70.1687C69.582 20.4082 69.1179 20.4082 69.1179 19.7117V11.6365C69.1179 11.4683 69.0778 11.3432 68.971 11.3432C68.8643 11.3432 68.7405 11.3645 68.5923 11.447C68.5082 11.514 67.3306 11.9098 66.3411 12.2058V12.5435L66.4376 12.5952C67.146 12.973 67.4347 13.1268 67.4347 14.0145V19.7117C67.4347 20.4082 67.0146 20.4082 66.4249 20.4082ZM67.2468 7.05111C67.2468 7.59637 67.7293 8.10193 68.2789 8.10193C68.8459 8.10193 69.3101 7.62073 69.3101 7.05111C69.3101 6.48151 68.8072 6.03863 68.2789 6.03863C67.7507 6.03863 67.2468 6.50571 67.2468 7.05111ZM50.9458 6.82019C51.8285 6.83087 52.6874 6.84121 52.6874 8.60582L52.6861 18.8101C52.6257 20.22 52.0297 20.2797 50.8047 20.4025L50.7523 20.4078V20.9561L51.0403 20.9498C51.8799 20.9321 52.6858 20.9147 53.5717 20.9147C54.0549 20.9147 54.5391 20.9247 55.0337 20.9347C55.5489 20.9454 56.0758 20.9561 56.6221 20.9561C64.0696 20.9561 65.2883 15.7187 65.2883 13.6354C65.2883 9.90859 62.3224 6.27328 56.8754 6.27328C55.9867 6.27328 55.2149 6.2858 54.5518 6.29654C54.0526 6.30462 53.6151 6.31173 53.2357 6.31173C52.4141 6.31173 51.5725 6.31173 50.754 6.27328V6.81718C50.8177 6.81852 50.8821 6.81952 50.9458 6.82019ZM56.9368 20.281C55.9073 20.281 54.748 20.0932 54.748 18.4727V7.03075C54.8448 7.02475 54.9426 7.01607 55.0487 7.00706C55.3604 6.98003 55.7451 6.94666 56.3885 6.94666C60.4496 6.94666 62.9731 9.78613 62.9731 13.7195C62.9731 16.8536 61.4821 20.281 56.9368 20.281ZM72.5266 14.1383C72.5266 13.3621 72.296 13.1512 71.3076 12.7527V12.3509L71.4601 12.3012C72.3084 12.0246 73.1306 11.7566 74.083 11.3428C74.1471 11.3428 74.2085 11.3842 74.2085 11.5494V12.9206C75.4101 12.0563 76.4413 11.3428 77.8512 11.3428C79.6395 11.3428 80.2705 12.6459 80.2705 14.2861V19.7117C80.2705 20.4078 80.7347 20.4078 81.3213 20.4078H81.7001V20.9561C81.3323 20.9561 80.9659 20.9461 80.5975 20.9357C80.2251 20.9254 79.8507 20.9151 79.4716 20.9151C78.7632 20.9151 78.0497 20.9337 77.3369 20.9524L77.1974 20.9561V20.4078H77.5762C78.1658 20.4078 78.5843 20.4078 78.5843 19.7117V14.2677C78.5843 13.0657 77.8495 12.4791 76.6505 12.4791C75.9771 12.4791 74.9063 13.026 74.2085 13.4902V19.7131C74.2085 20.4095 74.674 20.4095 75.2636 20.4095H75.6424V20.9578C75.277 20.9578 74.9113 20.9474 74.5422 20.9371C74.1678 20.9267 73.7907 20.9164 73.4083 20.9164C72.6988 20.9164 71.993 20.9351 71.2853 20.9538L71.1368 20.9578V20.4095H71.5185C72.1065 20.4095 72.5266 20.4095 72.5266 19.7131V14.1383ZM83.2995 16.3694C83.2551 15.6533 83.2551 15.3399 83.2995 15.1507H89.2077L89.3999 15.0239C89.4183 14.8971 89.4183 14.772 89.4183 14.6435C89.3999 12.4137 87.5672 11.3428 85.8627 11.3428C84.3917 11.3428 81.6163 12.5619 81.6163 16.6857C81.6163 18.0312 82.2884 21.2708 85.6348 21.2708C87.3593 21.2708 88.5566 20.1772 89.525 18.8942L89.2304 18.5995C88.4542 19.377 87.5472 20.0094 86.3896 20.0094C84.7077 20.0094 83.422 18.3689 83.2995 16.3694ZM87.6083 13.9517C87.6083 14.2023 87.5472 14.4756 87.0233 14.4756L83.3606 14.477C83.6125 12.9606 84.4968 12.0149 85.7786 12.0149C86.9562 12.0149 87.6083 12.8765 87.6083 13.9517ZM89.9021 20.4078H90.4731C91.0611 20.4078 91.4785 20.4078 91.4785 19.7117V13.8036C91.4785 13.289 90.9957 13.1014 90.6363 12.962C90.5402 12.9249 90.4531 12.8909 90.3863 12.8552V12.5432C91.2129 12.1911 91.8396 11.8708 92.2711 11.6495C92.6408 11.4603 92.8677 11.3442 92.9552 11.3442C93.079 11.3442 93.143 11.4056 93.143 11.6178V13.5102H93.1871C93.7113 12.6913 94.5956 11.3442 95.8787 11.3442C96.4039 11.3442 97.076 11.6989 97.076 12.4577C97.076 13.026 96.6789 13.5329 96.0879 13.5329C95.7706 13.5329 95.6074 13.4135 95.4392 13.2907C95.2614 13.1602 95.0775 13.026 94.6994 13.026C94.342 13.026 93.1644 13.5102 93.1644 14.7733V19.7131C93.1644 20.4095 93.5845 20.4095 94.1742 20.4095H95.3518V20.9578L94.5943 20.9441C93.7884 20.9291 93.1046 20.9164 92.4082 20.9164C91.5042 20.9164 90.6626 20.9378 89.9035 20.9578L89.9021 20.4078ZM97.6246 18.1367L98.0004 18.0319C98.2767 19.4184 99.1169 20.5987 100.653 20.5987C101.894 20.5987 102.354 19.8399 102.354 19.1051C102.354 17.9608 101.378 17.5133 100.328 17.0314C99.1009 16.4685 97.7711 15.8585 97.7711 14.0355C97.7711 12.8552 98.7195 11.3442 101.032 11.3442C101.704 11.3442 102.608 11.5337 103.429 11.9522L103.577 14.0982H103.093C102.883 12.7741 102.146 12.0149 100.798 12.0149C99.9569 12.0149 99.1597 12.5004 99.1597 13.4034C99.1597 14.545 100.208 14.9945 101.332 15.4771C102.634 16.0357 104.04 16.6383 104.04 18.4103C104.04 19.7972 102.924 21.2708 100.423 21.2708C99.5781 21.2708 98.5914 20.9775 97.8552 20.5577L97.6246 18.1367ZM137.301 19.7968C137.301 20.1772 137.531 20.1969 137.889 20.1969C138.013 20.1969 138.152 20.1923 138.294 20.1873C138.442 20.1823 138.593 20.1772 138.732 20.1772V20.6201C137.825 20.7038 136.102 21.1453 135.699 21.2708L135.595 21.208V19.5065C134.335 20.536 133.364 21.2708 131.87 21.2708C130.735 21.2708 129.559 20.536 129.559 18.77V13.3818C129.559 12.8335 129.474 12.3066 128.299 12.2041V11.804C128.711 11.7917 129.394 11.7496 129.976 11.7136C130.466 11.6832 130.885 11.6572 131.011 11.6572C131.245 11.6572 131.245 11.804 131.245 12.2655V17.6922C131.245 18.3215 131.245 20.1329 133.075 20.1329C133.788 20.1329 134.735 19.5846 135.618 18.8528V13.1895C135.618 12.8121 134.803 12.5885 134.09 12.3933C134.009 12.3713 133.93 12.3496 133.854 12.3279V11.9492C135.078 11.8674 136.004 11.7686 136.562 11.7092C136.866 11.6765 137.061 11.6559 137.135 11.6559C137.304 11.6559 137.304 11.8027 137.304 12.0346V19.7942L137.301 19.7968ZM53.3305 33.5583C53.6398 33.5693 53.9471 33.5804 54.2211 33.5804H54.2712V33.1389H54.0616C53.6445 33.1289 53.2644 33.0932 53.2627 32.5335V26.5373C53.2657 25.976 53.6458 25.9389 54.0616 25.9319H54.2712V25.4904H54.2198C53.9528 25.4904 53.6505 25.5011 53.3445 25.5121C53.0305 25.5235 52.7125 25.5345 52.4241 25.5345C52.1288 25.5345 51.7984 25.5225 51.4861 25.5108C51.2065 25.5004 50.9415 25.4904 50.7296 25.4904H50.6782V25.9319H50.8891C51.3036 25.9406 51.6823 25.9776 51.685 26.5373V32.5335C51.6836 33.0932 51.3036 33.1289 50.8891 33.1389H50.6782V33.5804H50.7296C50.9422 33.5804 51.2045 33.5703 51.4811 33.56C51.7898 33.5483 52.1168 33.536 52.4128 33.536C52.6994 33.536 53.0165 33.5473 53.3305 33.5583ZM62.277 33.7369L62.7482 33.7539L62.8096 33.7525L62.7996 33.6941C62.7438 33.3454 62.7325 32.945 62.7325 32.5479V27.3375C62.7468 25.9903 63.2297 25.9476 63.7039 25.9333H63.9245V25.4921H63.8718C63.6352 25.4921 63.3992 25.5031 63.164 25.5141C62.9304 25.5251 62.6975 25.5362 62.4662 25.5362C62.1992 25.5362 61.9336 25.5251 61.6677 25.5141C61.4007 25.5031 61.1334 25.4921 60.8628 25.4921H60.8117V25.9333H61.1134C61.4481 25.9419 62.0548 26.0501 62.0604 26.9614V31.1707L57.0309 25.5105C56.8033 25.5004 56.5944 25.5118 56.3918 25.5225C56.2507 25.5301 56.1125 25.5375 55.973 25.5375C55.7571 25.5375 55.5382 25.5265 55.3187 25.5155C55.0974 25.5045 54.8758 25.4934 54.6556 25.4934H54.6059V25.9349H54.8068C55.298 25.9363 55.7992 26.308 55.8005 26.916V31.7363C55.7905 32.649 55.5756 33.1345 54.8181 33.1402H54.6059V33.5817H54.6556C54.9165 33.5817 55.1792 33.5707 55.4405 33.5593C55.6994 33.5483 55.9577 33.5376 56.212 33.5376C56.4556 33.5376 56.6998 33.5483 56.9451 33.5593C57.192 33.5707 57.44 33.5817 57.6889 33.5817H57.74V33.1402H57.4937C56.6321 33.1289 56.4813 32.8455 56.4669 31.8488V27.2621L62.277 33.7369ZM65.582 26.1622C64.7844 26.1782 64.7564 26.3043 64.5972 27.0291L64.5665 27.1673L64.5608 27.206H64.118L64.125 27.1476C64.141 27.0318 64.1591 26.9163 64.1771 26.8002C64.2091 26.595 64.2415 26.3871 64.2632 26.1735C64.3102 25.8558 64.3329 25.5368 64.3329 25.2095V25.1581H64.6947L64.7033 25.1951C64.7808 25.4818 64.9887 25.4858 65.2763 25.4911L65.2843 25.4914H71.2479C71.5656 25.4858 71.7992 25.4801 71.8188 25.1811L71.8232 25.1284L71.8746 25.1384L72.1963 25.1894L72.1906 25.2378L72.1789 25.3206C72.1389 25.6006 72.0982 25.8822 72.0681 26.1608C72.0454 26.4668 72.0454 26.7772 72.0454 27.0849V27.1206L72.0127 27.1346L71.6069 27.2827V27.2143L71.6066 27.2107C71.5739 26.7822 71.5262 26.1608 70.8051 26.1608H68.9767V32.2028C68.9881 33.0671 69.3314 33.1269 69.878 33.1395H70.143V33.581H70.0959C69.8877 33.581 69.6067 33.5703 69.3021 33.56C68.947 33.5483 68.5616 33.5356 68.2306 33.5356C67.8515 33.5356 67.4384 33.549 67.0683 33.561C66.7689 33.571 66.4956 33.5797 66.2938 33.5797H66.2454V33.1382H66.5117C67.144 33.1225 67.3976 33.1155 67.4117 32.2269V26.1608L65.582 26.1622ZM77.3423 33.5597C77.8392 33.5703 78.2977 33.5804 78.634 33.5804L78.6754 33.5774L78.6824 33.536C78.7865 32.9323 78.9217 32.3256 79.0698 31.7203L79.0812 31.6736L78.7138 31.5781L78.6654 31.5681L78.6541 31.6152C78.3107 32.9009 77.7597 32.9693 76.3799 32.9764H76.3555C75.6194 32.972 75.0327 32.969 75.0314 32.2803V29.6627H76.3559C77.08 29.6724 77.1184 30.0204 77.1881 30.6568L77.1988 30.7536L77.2031 30.8063L77.6016 30.7279L77.6429 30.7179V30.6795C77.6202 30.2437 77.6059 29.8082 77.6059 29.3751C77.6059 28.9279 77.6202 28.4837 77.6429 28.0366V27.9852H77.2031L77.1988 28.0296C77.119 28.6459 77.0036 28.985 76.3428 28.9893H75.0301V26.0928H76.5734C77.7541 26.1028 77.8522 26.6424 77.9222 27.3845V27.4456L78.3237 27.3401L78.3607 27.3288V27.2874C78.3394 26.9614 78.325 26.5286 78.325 26.1341C78.325 25.9162 78.3294 25.714 78.3394 25.5418V25.4904H78.288C77.9199 25.4904 77.4594 25.5004 76.9749 25.5108C76.4359 25.5225 75.8663 25.5345 75.3604 25.5345C74.8422 25.5345 74.2565 25.5218 73.7176 25.5098C73.2578 25.4998 72.832 25.4904 72.5109 25.4904H72.4596V25.9319H72.6705C73.0849 25.9419 73.462 25.979 73.4663 26.5373V32.5335C73.462 33.0932 73.0832 33.1315 72.6705 33.1389H72.4596V33.5804H72.5109C72.8006 33.5804 73.2294 33.571 73.7063 33.5607C74.3049 33.5477 74.9813 33.5333 75.554 33.5333C76.1119 33.5333 76.7543 33.547 77.3423 33.5597ZM86.7994 33.558C86.9862 33.569 87.1741 33.5804 87.3663 33.5804L87.413 33.5817V33.1445L87.372 33.1402C86.815 33.0675 86.6172 32.948 86.2968 32.4725L84.3744 29.593C85.256 29.2329 85.9407 28.5878 85.9407 27.554C85.9364 25.8935 84.608 25.4921 83.1667 25.4921C82.8697 25.4921 82.587 25.5024 82.2964 25.5131C81.9891 25.5245 81.6734 25.5362 81.3227 25.5362C80.9199 25.5362 80.5138 25.5215 80.1711 25.5088C79.9201 25.4998 79.7032 25.4921 79.5457 25.4921H79.4986V25.9333H79.7536L79.7716 25.9339C80.1217 25.9449 80.5071 25.957 80.5141 26.7552V32.5706C80.5111 32.9567 80.165 33.1359 79.7536 33.1402H79.4986V33.5817H79.5457C79.8377 33.5817 80.1193 33.5703 80.3973 33.559C80.6679 33.5483 80.9349 33.5376 81.2045 33.5376C81.5286 33.5376 81.8566 33.5487 82.1849 33.5597C82.515 33.5707 82.8457 33.5817 83.174 33.5817H83.2251V33.1402H82.9688L82.9398 33.1395C82.4265 33.1259 82.0928 33.1172 82.0818 32.2716V29.8723H82.7582C83.4987 31.1807 84.2519 32.4097 85.1279 33.563C85.3638 33.5733 85.589 33.562 85.8053 33.551C85.9541 33.5433 86.0999 33.536 86.2414 33.536C86.4293 33.536 86.6142 33.547 86.7994 33.558ZM84.3076 27.6265C84.2976 28.9566 83.725 29.3497 82.5931 29.361H82.0832V26.0444L82.1713 26.034C82.2934 26.019 82.4352 26.0017 82.6842 26.0017C83.6796 26.0073 84.3016 26.6284 84.3076 27.6265ZM95.3304 33.7369L95.8003 33.7539L95.856 33.7512L95.8503 33.6928C95.7933 33.3411 95.7833 32.9437 95.7833 32.5462V27.3361C95.7946 25.989 96.2832 25.9433 96.7543 25.9319H96.9723V25.4904H96.9225C96.6869 25.4904 96.451 25.5014 96.2158 25.5128C95.9815 25.5238 95.7479 25.5345 95.5156 25.5345C95.2497 25.5345 94.9854 25.5238 94.7201 25.5128C94.4528 25.5018 94.1845 25.4904 93.9122 25.4904H93.8625V25.9319H94.1642C94.4975 25.9376 95.1099 26.0487 95.1099 26.9601V31.1694L90.0773 25.5048C89.8577 25.4974 89.6552 25.5088 89.459 25.5198C89.3128 25.5281 89.1703 25.5362 89.0265 25.5362C88.8109 25.5362 88.591 25.5251 88.3708 25.5141C88.1495 25.5031 87.9283 25.4918 87.7107 25.4918H87.6567V25.9333H87.8589C88.3487 25.9349 88.8469 26.3037 88.8486 26.9143V31.7333C88.8413 32.649 88.6234 33.1359 87.8672 33.1402H87.6567V33.5817H87.7107C87.967 33.5817 88.2276 33.57 88.4882 33.558C88.7489 33.5463 89.0095 33.5346 89.2657 33.5346C89.51 33.5346 89.7546 33.5463 89.9999 33.558C90.2465 33.5697 90.4938 33.5817 90.7424 33.5817H90.7921V33.1402H90.5488C89.6859 33.1289 89.5347 32.8469 89.5207 31.8488V27.2621L95.3304 33.7369ZM104.654 33.571L104.86 33.58L104.914 33.584V33.1355H104.796C104.428 33.1355 104.218 33.0144 104.085 32.7084C103.958 32.4221 103.842 32.074 103.727 31.731L103.665 31.5478L101.555 25.5585L101.531 25.4924L101.506 25.4244C101.488 25.3733 101.47 25.3219 101.451 25.2722C101.416 25.2111 101.352 25.2025 101.325 25.2038C101.288 25.2038 101.261 25.2141 101.235 25.2241L101.216 25.2312C100.994 25.3706 100.532 25.5999 100.175 25.725C100.085 26.1408 99.9045 26.6531 99.76 27.0632L99.7206 27.1746L97.8866 32.4278C97.7214 32.8919 97.3667 33.1355 96.9409 33.1355H96.8258V33.584L96.8768 33.58L97.0483 33.5707C97.4017 33.552 97.7571 33.533 98.1102 33.533C98.5056 33.533 98.9111 33.5523 99.3112 33.5714L99.4927 33.58L99.5441 33.584V33.1355H99.3689C98.9888 33.1355 98.56 33.0671 98.5557 32.7881C98.5557 32.6657 98.6151 32.4912 98.6891 32.2736C98.7268 32.1625 98.7686 32.0403 98.8079 31.9082L99.1653 30.7532H101.691L102.127 32.049C102.254 32.4121 102.354 32.7254 102.352 32.8566C102.352 33.0771 101.96 33.1355 101.697 33.1355H101.519V33.584L101.57 33.58L101.856 33.5693C102.342 33.551 102.818 33.533 103.286 33.533C103.761 33.533 104.21 33.552 104.654 33.571ZM101.419 30.0141H99.4159L100.424 26.9454L101.419 30.0141ZM109.088 33.5603C109.391 33.5703 109.671 33.5797 109.877 33.5797V33.584H109.927V33.1425H109.659C109.114 33.1299 108.77 33.0701 108.759 32.2055V26.1635H110.587C111.312 26.1635 111.358 26.7889 111.387 27.2173V27.2858L111.793 27.1376L111.829 27.1232V27.0879C111.829 26.7805 111.829 26.4695 111.85 26.1635C111.885 25.8575 111.927 25.5485 111.976 25.2408L111.986 25.1924L111.659 25.1411L111.603 25.1314V25.1838C111.584 25.4831 111.35 25.4888 111.034 25.4944H105.069L105.061 25.4941C104.775 25.4884 104.567 25.4844 104.487 25.1981L104.477 25.1611H104.115V25.2125C104.115 25.5398 104.094 25.8575 104.047 26.1792C104.023 26.4128 103.987 26.6407 103.952 26.8673C103.937 26.9614 103.923 27.0552 103.909 27.1489L103.902 27.2073H104.346L104.353 27.169L104.382 27.0358C104.539 26.3063 104.566 26.1785 105.37 26.1635L107.194 26.1608V32.2269C107.178 33.1155 106.926 33.1225 106.294 33.1382H106.028V33.5797H106.076C106.278 33.5797 106.55 33.571 106.851 33.561C107.221 33.549 107.635 33.5356 108.013 33.5356C108.346 33.5356 108.732 33.5486 109.088 33.5603ZM114.951 33.557C115.261 33.5687 115.567 33.5804 115.841 33.5804H115.887V33.1389H115.681C115.262 33.1302 114.885 33.0932 114.88 32.5335V26.5373C114.885 25.979 115.262 25.9389 115.681 25.9319H115.887V25.4904H115.841C115.574 25.4904 115.272 25.5011 114.965 25.5121C114.651 25.5235 114.332 25.5345 114.042 25.5345C113.747 25.5345 113.416 25.5225 113.104 25.5108C112.824 25.5004 112.56 25.4904 112.349 25.4904H112.3V25.9319H112.508C112.922 25.9406 113.301 25.979 113.303 26.5373V32.5335C113.301 33.0932 112.922 33.1315 112.508 33.1389H112.3V33.5804H112.349C112.559 33.5804 112.821 33.5697 113.097 33.5587C113.407 33.5463 113.735 33.5333 114.032 33.5333C114.319 33.5333 114.637 33.545 114.951 33.557ZM120.406 25.3196C122.863 25.3246 124.833 26.8509 124.837 29.3183C124.836 31.9796 122.925 33.7482 120.462 33.7539C118.015 33.7482 116.136 32.0807 116.131 29.593C116.136 27.187 118.001 25.3233 120.406 25.3196ZM123.137 29.5716C123.131 31.2391 122.755 33.1472 120.577 33.1489C118.767 33.1432 117.835 31.2291 117.834 29.1885C117.838 27.6665 118.419 25.9236 120.383 25.9219C122.243 25.9236 123.137 27.9114 123.137 29.5716ZM132.693 33.7369L133.167 33.7539L133.223 33.7512L133.213 33.6928C133.159 33.3438 133.149 32.9437 133.149 32.5462V27.3361C133.159 25.989 133.647 25.9463 134.117 25.9319H134.338V25.4904H134.289C134.051 25.4904 133.815 25.5014 133.58 25.5128C133.346 25.5238 133.112 25.5345 132.877 25.5345C132.614 25.5345 132.35 25.5238 132.086 25.5128C131.818 25.5018 131.549 25.4904 131.279 25.4904H131.228V25.9319H131.527C131.864 25.9406 132.474 26.0487 132.475 26.9601V31.1694L127.447 25.5091C127.218 25.4988 127.009 25.5101 126.806 25.5211C126.666 25.5288 126.529 25.5362 126.391 25.5362C126.176 25.5362 125.957 25.5251 125.737 25.5141C125.516 25.5031 125.293 25.4918 125.073 25.4918H125.027V25.9333H125.221C125.716 25.9349 126.214 26.3037 126.214 26.9143V31.7347C126.208 32.649 125.991 33.1345 125.236 33.1359H125.027V33.5804H125.073C125.334 33.5804 125.596 33.569 125.858 33.558C126.117 33.547 126.376 33.536 126.631 33.536C126.876 33.536 127.121 33.547 127.366 33.558C127.613 33.569 127.861 33.5804 128.108 33.5804H128.159V33.1359H127.91C127.05 33.1259 126.899 32.8469 126.885 31.8488V27.2621L132.693 33.7369ZM142.008 33.571L142.229 33.58L142.278 33.5827V33.1385H142.161C141.794 33.1355 141.589 33.0147 141.454 32.7097C141.324 32.4174 141.204 32.0623 141.086 31.7133L141.029 31.5478L138.923 25.5585C138.898 25.4971 138.874 25.43 138.852 25.3656L138.819 25.2739C138.782 25.2111 138.722 25.2011 138.694 25.2055C138.648 25.2055 138.614 25.2198 138.584 25.2312C138.364 25.3706 137.902 25.5999 137.542 25.725C137.455 26.1211 137.287 26.6047 137.148 27.0041L137.089 27.1746L135.258 32.4278C135.093 32.8906 134.734 33.1355 134.306 33.1399H134.194V33.584L134.244 33.58L134.517 33.567C134.838 33.5513 135.157 33.5356 135.478 33.5356C135.871 33.5356 136.275 33.5537 136.672 33.5717L136.86 33.58L136.911 33.584V33.1399H136.736C136.358 33.1399 135.93 33.0671 135.93 32.7868C135.928 32.6683 135.985 32.5018 136.055 32.2929C136.095 32.1775 136.138 32.0487 136.179 31.9082L136.531 30.7532H139.058L139.493 32.049C139.622 32.4137 139.725 32.7254 139.723 32.8566C139.72 33.0771 139.326 33.1399 139.06 33.1399H138.886V33.584L138.937 33.58L139.333 33.5667C139.78 33.551 140.222 33.5356 140.653 33.5356C141.119 33.5356 141.566 33.5537 142.008 33.571ZM138.788 30.0114H136.784L137.79 26.947L138.788 30.0114ZM147.162 33.558C147.666 33.5693 148.17 33.5804 148.675 33.5804H148.713L148.725 33.5433C148.781 33.2747 148.841 33.0084 148.902 32.7428C148.987 32.3623 149.073 31.9813 149.149 31.5965L149.16 31.5341H148.729L148.717 31.5725C148.651 31.8231 148.549 32.1364 148.373 32.3827C148.173 32.656 147.773 32.9223 147.309 32.9794C147.01 33.0091 146.719 33.0234 146.439 33.0234C146.22 33.0234 146.005 33.0164 145.805 33.0021C145.445 32.9493 145.167 32.8369 145.162 32.4097V26.5046C145.171 25.9503 145.427 25.9443 145.838 25.9346L145.892 25.9333H146.226V25.4921H146.181C145.888 25.4921 145.597 25.5031 145.307 25.5141C145.019 25.5251 144.731 25.5362 144.44 25.5362C144.139 25.5362 143.84 25.5251 143.54 25.5141C143.239 25.5031 142.936 25.4921 142.63 25.4921H142.583V25.9333H142.789C143.208 25.9406 143.598 25.9803 143.602 26.5359V32.4197C143.598 33.1005 143.205 33.1289 142.789 33.1389H142.583V33.5804H142.63C143.135 33.5804 143.639 33.5693 144.143 33.5583C144.647 33.547 145.151 33.536 145.656 33.536C146.157 33.536 146.659 33.547 147.162 33.558ZM148.959 25.2171C149.649 25.2171 150.166 25.7481 150.166 26.4245C150.166 27.1009 149.65 27.6265 148.959 27.6265C148.269 27.6265 147.753 27.1009 147.753 26.4245C147.753 25.7481 148.271 25.2171 148.959 25.2171ZM148.959 27.4015C149.499 27.4015 149.913 26.943 149.913 26.4245C149.913 25.9062 149.506 25.442 148.959 25.442C148.413 25.442 148.004 25.9062 148.004 26.4245C148.004 26.943 148.417 27.4015 148.959 27.4015ZM148.361 27.0612V27.0014L148.399 26.9964C148.513 26.9814 148.536 26.9784 148.536 26.8943V26.003C148.536 25.8762 148.522 25.8335 148.364 25.8408V25.7781H148.982C149.191 25.7781 149.388 25.8819 149.388 26.0984C149.388 26.2793 149.271 26.4105 149.103 26.4628L149.3 26.7408C149.394 26.8633 149.497 26.9828 149.567 27.0241V27.0625H149.332C149.256 27.0625 149.186 26.9514 149.079 26.7802C149.029 26.7008 148.971 26.6087 148.901 26.5086H148.769V26.906C148.769 26.9791 148.79 26.9818 148.897 26.9954L148.942 27.0014V27.0612H148.361ZM148.769 26.4245H148.91C149.066 26.4245 149.137 26.3077 149.137 26.1185C149.137 25.9289 149.023 25.8592 148.901 25.8592H148.769V26.4245Z" fill="white"/>
</svg>
