<svg width="30" height="120" viewBox="0 0 30 120" fill="none" xmlns="http://www.w3.org/2000/svg">
<path d="M0.719527 95.8894C2.54316 97.3643 6.10522 99.3077 12.4453 102.258C20.5921 106.075 24.0178 107.949 25.5346 109.424C27.4094 111.263 27.7503 113.675 26.3527 115.185C25.8244 115.757 25.7221 115.792 24.6995 115.792C23.5065 115.792 22.6884 115.428 22.3134 114.716C22.1941 114.491 22.0919 113.762 22.0748 113.103L22.0748 111.888L21.4954 111.888C20.6432 111.888 20.2512 112.634 20.1489 114.404C20.0296 116.608 20.575 117.77 22.1771 118.655C22.9611 119.072 23.2679 119.158 24.3757 119.141C26.08 119.141 27.1708 118.673 28.2957 117.406C29.3183 116.261 29.6591 115.237 29.6591 113.276C29.6591 108.938 27.5969 106.543 20.5239 102.691C19.0411 101.876 17.9333 101.216 18.0697 101.216C18.8707 101.216 22.0919 101.841 24.7847 102.5C29.233 103.594 29.199 103.594 29.6421 103.021C29.8296 102.761 30 102.448 30 102.31C30 101.668 26.6936 99.0648 23.0974 96.8958C21.1375 95.6985 20.4046 95.178 20.967 95.3862C21.1034 95.4383 22.0748 95.5597 23.1315 95.6465C25.3642 95.8373 27.2901 95.6465 28.3809 95.1606C29.3864 94.7095 29.8125 93.8072 29.8296 92.1761C29.8296 90.7532 29.5228 89.6601 28.7388 88.376C28.3979 87.8207 28.1252 87.2655 28.1252 87.1267C28.1252 87.0052 28.3638 86.6755 28.6365 86.3979C29.7955 85.2353 30 82.8234 29.0967 80.8453L28.6365 79.8388L29.0626 79.3183C29.8637 78.3466 29.8466 77.2187 28.9944 75.4488C28.2275 73.8871 26.5743 72.2734 22.5861 69.2542C19.4502 66.8769 18.6832 66.1655 19.2968 66.1655C19.4161 66.1655 20.2512 66.7555 21.1375 67.4669C22.8759 68.8724 25.1597 70.1738 26.455 70.5035C27.5117 70.7811 28.2616 70.5208 29.0456 69.6185C29.608 68.9939 29.6591 68.8551 29.6591 67.8486C29.6591 66.4605 29.3353 65.3326 28.4831 63.8751L27.8184 62.7298L28.4831 62.0704C29.4546 61.0987 29.8637 60.1444 29.8466 58.8083C29.8466 57.3854 29.4035 56.2228 28.1252 54.1927C27.5628 53.2904 27.1026 52.5095 27.1026 52.4401C27.1026 52.3707 27.5117 52.3534 28.0059 52.4054C28.7899 52.4922 28.9774 52.4401 29.3694 52.0931C29.625 51.8675 29.8807 51.4337 29.9318 51.1387C30.1023 50.2017 29.4376 49.6465 25.9607 47.9286C22.6202 46.2628 21.3761 45.3258 20.3023 43.66C19.3649 42.2198 19.5695 42.2198 22.4327 43.7121C25.1597 45.1349 26.847 45.8637 27.3924 45.8637C28.5002 45.8637 29.8296 44.4235 29.8296 43.2262C29.8296 42.376 29.5057 41.5952 28.6195 40.3111L27.9207 39.2873L28.6877 38.4024C29.1137 37.9165 29.5569 37.2398 29.6762 36.8928C30 35.869 29.7784 34.4114 29.0285 32.8671L28.3809 31.479L29.0967 30.6981C30.2727 29.4488 30.1023 28.5118 28.2957 25.9784C27.7332 25.1976 27.2731 24.5208 27.2731 24.4688C27.2731 24.4341 27.5798 24.3126 27.9548 24.1911C28.3297 24.087 28.8922 23.7053 29.233 23.3583C29.8807 22.6815 30.1023 21.918 29.9489 20.929C29.7955 19.9573 28.7729 17.9444 27.8866 16.8686C27.4605 16.3307 27.1026 15.8449 27.1026 15.7928C27.1026 15.7234 27.3583 15.5499 27.648 15.3937C29.7103 14.3352 30.4261 12.1489 29.4035 10.0146C28.2786 7.68945 24.0689 4.13229 22.7907 4.46198C22.0578 4.6355 22.1089 5.0346 22.9611 5.83279C25.296 7.98443 26.1652 8.90408 26.6084 9.68492C27.4605 11.1772 27.1878 12.0621 25.7903 12.3745C24.3757 12.7042 23.5576 12.1142 21.2568 9.06025C19.8592 7.18623 16.7573 3.99348 15.3257 2.91766C13.4168 1.47745 10.1956 0.0545892 8.7299 0.00253389C7.80956 -0.0321722 7.50278 0.314866 7.50278 1.46009C7.50278 2.10212 7.62208 2.46651 8.11634 3.19529C9.70137 5.60721 12.3942 8.45293 14.7462 10.2228C16.0415 11.1945 17.03 11.8192 21.0011 14.1617C24.086 16.001 26.4891 18.1006 27.0345 19.4194C27.5458 20.6687 26.5913 21.519 24.9552 21.3107C23.7621 21.1719 23.336 20.7902 21.6488 18.3782C19.1093 14.769 16.5528 12.1142 14.2349 10.7087C13.0589 9.99725 10.6728 8.85203 9.58206 8.48763C8.83216 8.22736 8.59355 8.21 8.18451 8.38352C7.09374 8.83467 7.19599 10.5872 8.42312 12.4439C10.8774 16.1745 15.4109 19.8705 21.3249 22.9765C23.5406 24.1217 24.3075 24.6423 25.0574 25.3884C26.5913 26.9675 27.0004 28.1647 26.0119 28.1647C25.5006 28.1647 24.7847 27.8524 20.7795 25.8396C19.1263 25.024 17.6265 24.3473 17.422 24.3473C16.9448 24.3473 16.7062 24.8332 16.7062 25.8222C16.7062 26.4296 16.8084 26.7245 17.1152 27.0369C17.5243 27.4533 17.5243 27.4533 17.2004 27.8871C16.4676 28.8415 16.5017 31.0972 17.3027 32.763C18.206 34.6717 20.9329 37.4307 23.1827 38.7147C24.9722 39.7385 27.3242 42.2198 26.4891 42.2198C26.3357 42.2198 25.4494 41.786 24.5291 41.2481C20.8307 39.1138 19.2116 38.6974 17.6095 39.4262C16.3483 40.0161 16.1949 41.0225 17.1323 42.8445C17.4561 43.4865 17.7117 44.0244 17.6777 44.0591C17.6606 44.0765 17.03 43.8336 16.2801 43.5039C12.4794 41.8207 8.37199 40.1376 8.04816 40.1376C7.12782 40.1376 6.804 41.786 7.53686 42.6536C7.89477 43.0527 11.6954 44.9267 18.7173 48.1368C20.0637 48.7442 21.4783 49.5076 21.8533 49.8373C22.4668 50.3752 24.2053 52.7004 24.2053 52.978C24.2053 53.0474 23.6087 53.2036 22.8759 53.3077C22.143 53.4118 21.0522 53.6548 20.4387 53.8283L19.3479 54.1406L18.4105 53.4118C17.8992 53.0127 17.1493 52.4748 16.7403 52.1972C16.0245 51.7287 16.0074 51.7113 15.6495 52.041C15.3086 52.3534 14.8314 53.2904 14.8314 53.6721C14.8314 54.0538 16.2801 55.4247 20.0296 58.6174C22.1771 60.4394 24.4268 62.4522 25.0233 63.0595C26.2334 64.3088 27.1538 66.0093 27.0685 66.7902C26.9322 68.0222 25.1597 67.2934 21.4442 64.4997C20.1149 63.4933 18.8025 62.5563 18.5298 62.4001C17.4731 61.8449 16.7062 62.6257 16.7062 64.2568C16.7062 64.7947 16.638 65.1244 16.5017 65.1244C16.3994 65.1244 15.837 64.9335 15.2745 64.7079C14.2519 64.2915 13.7066 64.2047 12.3772 64.2394C11.8147 64.2568 11.5761 64.3783 10.9455 65.055C10.2297 65.8358 10.1956 65.9052 10.2638 66.7034C10.3661 67.6751 10.9796 68.5948 11.8147 69.0633C12.6158 69.5144 15.4279 69.4971 16.7403 69.0459L17.6947 68.6989L18.6662 69.3062C20.4387 70.3994 23.7621 73.0369 24.9211 74.3036C25.9607 75.4141 26.3698 76.2296 25.9096 76.2296C25.8073 76.2296 24.0007 75.3273 21.8874 74.2342C19.791 73.141 17.8822 72.2387 17.6777 72.2387C17.4561 72.2387 17.2004 72.3255 17.0811 72.4469C16.7914 72.7419 16.8255 74.078 17.1493 74.7027C17.3879 75.1885 17.3879 75.2926 17.1664 75.8653C16.7573 76.837 16.6721 77.7219 16.8766 78.7977C17.4731 81.7129 19.9615 84.68 23.336 86.4846C23.9326 86.797 24.7847 87.3869 25.2279 87.786C26.1141 88.6016 27.1026 90.4409 27.1026 91.2738C27.1026 92.2975 25.8926 92.8181 23.7962 92.6619C19.9274 92.3843 14.5246 89.9897 5.86662 84.68C3.17377 83.0316 1.23083 81.9558 0.975176 81.9558C0.412745 81.9558 0.105965 82.4937 0.276398 83.2225C0.361616 83.6216 1.00926 84.4198 2.7136 86.1203C5.96888 89.4171 9.10485 91.9679 14.9507 96.0803C16.0074 96.8264 16.8766 97.4684 16.8766 97.5205C16.8766 97.6593 14.3201 97.4164 12.7862 97.1387C9.71842 96.5835 7.17896 95.8026 3.92368 94.4492C1.58874 93.4601 0.702483 93.356 0.276399 93.9633C-0.200814 94.6574 -0.0644675 95.23 0.719527 95.8894ZM10.8774 11.5069C11.3546 11.5069 14.9507 14.075 16.4335 15.4805C17.5584 16.5563 18.99 18.2568 18.8707 18.3956C18.5639 18.6906 14.8144 15.8102 12.3942 13.4329C10.8603 11.906 10.5365 11.5069 10.8774 11.5069ZM11.2012 3.19529C12.3942 3.64644 14.9166 5.38164 16.2631 6.63097C17.3368 7.67209 18.8196 9.40729 18.7003 9.52875C18.4446 9.78903 15.5984 7.77621 12.8203 5.38164C10.8603 3.69849 10.2127 2.81355 11.2012 3.19529ZM12.718 66.4431C13.1271 66.287 13.877 66.3217 14.4735 66.5299C15.0359 66.7381 15.1723 67.1025 14.7292 67.276C14.3031 67.4496 13.1441 67.3975 12.7692 67.2066C12.3772 66.9811 12.3431 66.582 12.718 66.4431ZM19.1775 77.2361C20.2001 76.7676 23.2849 77.9995 24.9381 79.5265C25.9266 80.4462 26.9322 82.1467 26.9322 82.9275C26.9322 83.986 25.9437 84.333 24.512 83.743C22.4668 82.9101 19.8081 80.7238 19.1093 79.3009C18.615 78.2772 18.6321 77.4963 19.1775 77.2361ZM19.2968 29.5876C20.183 29.1538 22.535 29.9693 24.4609 31.3749C25.6028 32.2077 26.8129 33.8041 27.0174 34.7932C27.1197 35.2617 27.0685 35.4179 26.6595 35.7649C26.2505 36.1293 26.063 36.1813 25.279 36.0946C23.3531 35.8864 20.1319 33.5091 19.1775 31.5831C18.6491 30.4899 18.6662 29.8999 19.2968 29.5876ZM22.8588 56.7781C23.0804 56.7087 23.9155 56.6566 24.7166 56.6393C26.3016 56.6219 26.9833 56.8822 27.5287 57.7325C27.8866 58.2704 27.7503 58.7215 27.0856 59.3115C26.0459 60.1964 25.5176 60.0229 23.2167 58.0448C22.2623 57.2293 22.1941 56.969 22.8588 56.7781Z" fill="white"/>
</svg>
