<svg width="30" height="120" viewBox="0 0 30 120" fill="none" xmlns="http://www.w3.org/2000/svg">
<path d="M29.2805 23.2537C27.4568 21.7788 23.8948 19.8353 17.5546 16.8855C9.40793 13.0681 5.98221 11.1941 4.46536 9.71915C2.59059 7.87984 2.24972 5.46792 3.64728 3.9583C4.17562 3.38568 4.27788 3.35098 5.30048 3.35098C6.49352 3.35098 7.3116 3.71537 7.68655 4.4268C7.80585 4.65238 7.90811 5.38116 7.92516 6.04053L7.92516 7.25517L8.50463 7.25517C9.3568 7.25517 9.7488 6.50904 9.85105 4.73914C9.97036 2.53544 9.42497 1.37286 7.8229 0.487908C7.0389 0.0714616 6.73212 -0.0152982 5.6243 0.00205373C3.91997 0.00205366 2.8292 0.470556 1.70433 1.73725C0.681734 2.88248 0.340867 3.90624 0.340867 5.86701C0.340867 10.205 2.40311 12.5996 9.4761 16.4517C10.9589 17.2672 12.0667 17.9266 11.9303 17.9266C11.1293 17.9266 7.90811 17.3019 5.21526 16.6426C0.76695 15.5494 0.801037 15.5494 0.35791 16.122C0.170433 16.3823 -7.29745e-07 16.6946 -7.35813e-07 16.8334C-7.63877e-07 17.4755 3.30641 20.0783 6.90255 22.2473C8.86254 23.4445 9.5954 23.9651 9.03297 23.7569C8.89663 23.7048 7.92516 23.5834 6.86847 23.4966C4.63579 23.3057 2.70989 23.4966 1.61912 23.9824C0.613559 24.4336 0.187476 25.3359 0.170432 26.967C0.170432 28.3898 0.477212 29.483 1.26121 30.7671C1.60207 31.3223 1.87477 31.8776 1.87477 32.0164C1.87477 32.1379 1.63616 32.4675 1.36347 32.7452C0.204519 33.9078 -1.58758e-06 36.3197 0.903296 38.2978L1.36347 39.3042L0.937382 39.8248C0.136345 40.7965 0.153388 41.9244 1.00556 43.6943C1.77251 45.2559 3.42571 46.8697 7.41385 49.8889C10.5498 52.2661 11.3168 52.9776 10.7032 52.9776C10.5839 52.9776 9.74879 52.3876 8.86254 51.6762C7.12412 50.2707 4.84031 48.9693 3.54501 48.6396C2.48833 48.3619 1.73842 48.6222 0.954425 49.5245C0.391995 50.1492 0.340865 50.288 0.340865 51.2944C0.340865 52.6826 0.664688 53.8105 1.51686 55.268L2.18155 56.4132L1.51686 57.0726C0.545385 58.0443 0.136344 58.9987 0.153388 60.3348C0.153387 61.7576 0.596514 62.9202 1.87477 64.9504C2.4372 65.8527 2.89737 66.6335 2.89737 66.7029C2.89737 66.7724 2.48833 66.7897 1.99407 66.7377C1.21007 66.6509 1.0226 66.7029 0.630601 67.05C0.374951 67.2756 0.1193 67.7094 0.0681704 68.0043C-0.102263 68.9414 0.562427 69.4966 4.03927 71.2145C7.37977 72.8802 8.62393 73.8172 9.69766 75.483C10.635 76.9232 10.4305 76.9232 7.56724 75.431C4.84031 74.0081 3.15302 73.2793 2.60763 73.2793C1.49981 73.2793 0.17043 74.7195 0.17043 75.9168C0.17043 76.7671 0.494254 77.5479 1.38051 78.832L2.07928 79.8557L1.31233 80.7407C0.886251 81.2265 0.443123 81.9033 0.32382 82.2503C-3.64002e-06 83.2741 0.22156 84.7316 0.971467 86.2759L1.61911 87.6641L0.903294 88.4449C-0.272697 89.6943 -0.102264 90.6313 1.70433 93.1647C2.26676 93.9455 2.72693 94.6222 2.72693 94.6743C2.72693 94.709 2.42015 94.8305 2.0452 94.9519C1.67024 95.056 1.10781 95.4378 0.766946 95.7848C0.119299 96.4615 -0.102264 97.225 0.0511258 98.2141C0.204516 99.1858 1.22712 101.199 2.11337 102.274C2.53945 102.812 2.89736 103.298 2.89736 103.35C2.89736 103.42 2.64171 103.593 2.35198 103.749C0.289732 104.808 -0.426088 106.994 0.596512 109.128C1.72137 111.454 5.93108 115.011 7.20933 114.681C7.9422 114.508 7.89107 114.108 7.0389 113.31C4.70396 111.159 3.83475 110.239 3.39162 109.458C2.53945 107.966 2.81215 107.081 4.2097 106.769C5.6243 106.439 6.44238 107.029 8.74323 110.083C10.1408 111.957 13.2427 115.15 14.6743 116.225C16.5832 117.666 19.8044 119.088 21.2701 119.141C22.1904 119.175 22.4972 118.828 22.4972 117.683C22.4972 117.041 22.3779 116.677 21.8837 115.948C20.2986 113.536 17.6058 110.69 15.2538 108.92C13.9585 107.949 12.97 107.324 8.99888 104.981C5.91404 103.142 3.51093 101.042 2.96554 99.7237C2.45424 98.4744 3.40867 97.6241 5.04483 97.8323C6.23786 97.9712 6.66394 98.3529 8.35124 100.765C10.8907 104.374 13.4472 107.029 15.7651 108.434C16.9411 109.146 19.3272 110.291 20.4179 110.655C21.1678 110.916 21.4064 110.933 21.8155 110.76C22.9063 110.308 22.804 108.556 21.5769 106.699C19.1226 102.969 14.5891 99.2726 8.67506 96.1666C6.45943 95.0213 5.69247 94.5008 4.94257 93.7546C3.40867 92.1756 2.99963 90.9783 3.98814 90.9783C4.49944 90.9783 5.21526 91.2907 9.22045 93.3035C10.8737 94.119 12.3735 94.7958 12.578 94.7958C13.0552 94.7958 13.2938 94.3099 13.2938 93.3208C13.2938 92.7135 13.1915 92.4185 12.8848 92.1062C12.4757 91.6898 12.4757 91.6898 12.7996 91.256C13.5324 90.3016 13.4983 88.0458 12.6973 86.3801C11.794 84.4713 9.06706 81.7124 6.81734 80.4283C5.02778 79.4046 2.6758 76.9232 3.51093 76.9232C3.66432 76.9232 4.55057 77.357 5.47091 77.895C9.16932 80.0292 10.7884 80.4457 12.3905 79.7169C13.6517 79.1269 13.8051 78.1205 12.8677 76.2986C12.5439 75.6565 12.2883 75.1186 12.3223 75.0839C12.3394 75.0666 12.97 75.3095 13.7199 75.6392C17.5206 77.3223 21.628 79.0055 21.9518 79.0055C22.8722 79.0055 23.196 77.357 22.4631 76.4894C22.1052 76.0903 18.3046 74.2163 11.2827 71.0062C9.93627 70.3989 8.52167 69.6354 8.14672 69.3057C7.53316 68.7678 5.79474 66.4427 5.79474 66.165C5.79474 66.0956 6.39125 65.9395 7.12412 65.8354C7.85698 65.7312 8.94775 65.4883 9.56132 65.3148L10.6521 65.0025L11.5895 65.7312C12.1008 66.1303 12.8507 66.6682 13.2597 66.9459C13.9755 67.4144 13.9926 67.4317 14.3505 67.102C14.6914 66.7897 15.1686 65.8527 15.1686 65.471C15.1686 65.0892 13.7199 63.7184 9.97036 60.5257C7.82289 58.7037 5.57317 56.6909 4.97666 56.0836C3.76658 54.8342 2.84624 53.1337 2.93145 52.3529C3.0678 51.1209 4.84031 51.8497 8.55576 54.6433C9.88514 55.6498 11.1975 56.5868 11.4702 56.7429C12.5269 57.2982 13.2938 56.5174 13.2938 54.8863C13.2938 54.3484 13.362 54.0187 13.4983 54.0187C13.6006 54.0187 14.163 54.2095 14.7255 54.4351C15.7481 54.8516 16.2934 54.9383 17.6228 54.9036C18.1853 54.8863 18.4239 54.7648 19.0545 54.0881C19.7703 53.3072 19.8044 53.2378 19.7362 52.4396C19.6339 51.4679 19.0204 50.5483 18.1853 50.0798C17.3842 49.6286 14.5721 49.646 13.2597 50.0971L12.3053 50.4442L11.3338 49.8369C9.56132 48.7437 6.23786 46.1062 5.07892 44.8395C4.03927 43.729 3.63023 42.9134 4.0904 42.9134C4.19266 42.9134 5.99926 43.8157 8.11263 44.9089C10.209 46.0021 12.1178 46.9044 12.3223 46.9044C12.5439 46.9044 12.7996 46.8176 12.9189 46.6962C13.2086 46.4012 13.1745 45.0651 12.8507 44.4404C12.6121 43.9545 12.6121 43.8504 12.8336 43.2778C13.2427 42.3061 13.3279 41.4212 13.1234 40.3453C12.5269 37.4302 10.0385 34.463 6.66395 32.6584C6.06743 32.3461 5.21526 31.7561 4.77214 31.357C3.88588 30.5415 2.89737 28.7022 2.89737 27.8693C2.89737 26.8455 4.10745 26.325 6.20378 26.4811C10.0726 26.7588 15.4754 29.1533 24.1334 34.463C26.8262 36.1115 28.7692 37.1873 29.0248 37.1873C29.5873 37.1873 29.894 36.6494 29.7236 35.9206C29.6384 35.5215 28.9907 34.7233 27.2864 33.0228C24.0311 29.7259 20.8951 27.1752 15.0493 23.0628C13.9926 22.3167 13.1234 21.6746 13.1234 21.6226C13.1234 21.4838 15.6799 21.7267 17.2138 22.0043C20.2816 22.5596 22.821 23.3404 26.0763 24.6939C28.4113 25.6829 29.2975 25.7871 29.7236 25.1797C30.2008 24.4857 30.0645 23.913 29.2805 23.2537ZM19.1226 107.636C18.6454 107.636 15.0493 105.068 13.5665 103.663C12.4416 102.587 11.01 100.886 11.1293 100.747C11.4361 100.452 15.1856 103.333 17.6058 105.71C19.1397 107.237 19.4635 107.636 19.1226 107.636ZM18.7988 115.948C17.6058 115.497 15.0834 113.761 13.7369 112.512C12.6632 111.471 11.1804 109.736 11.2997 109.614C11.5554 109.354 14.4016 111.367 17.1797 113.761C19.1397 115.445 19.7873 116.33 18.7988 115.948ZM17.282 52.6999C16.8729 52.8561 16.123 52.8214 15.5265 52.6132C14.9641 52.4049 14.8277 52.0406 15.2708 51.867C15.6969 51.6935 16.8559 51.7456 17.2308 51.9364C17.6228 52.162 17.6569 52.5611 17.282 52.6999ZM10.8225 41.907C9.79992 42.3755 6.71508 41.1435 5.06187 39.6166C4.07336 38.6969 3.0678 36.9964 3.0678 36.2156C3.0678 35.1571 4.05632 34.8101 5.48796 35.4C7.53316 36.2329 10.1919 38.4193 10.8907 39.8421C11.385 40.8659 11.3679 41.6467 10.8225 41.907ZM10.7032 89.5555C9.81696 89.9893 7.46498 89.1737 5.53908 87.7682C4.39718 86.9353 3.1871 85.3389 2.98258 84.3499C2.88032 83.8814 2.93145 83.7252 3.34049 83.3782C3.74953 83.0138 3.93701 82.9617 4.721 83.0485C6.6469 83.2567 9.86809 85.6339 10.8225 87.56C11.3509 88.6532 11.3338 89.2431 10.7032 89.5555ZM7.14116 62.365C6.9196 62.4344 6.08447 62.4864 5.28344 62.5038C3.6984 62.5211 3.01667 62.2608 2.47128 61.4106C2.11337 60.8727 2.24972 60.4215 2.91441 59.8316C3.95405 58.9466 4.4824 59.1201 6.78325 61.0983C7.73768 61.9138 7.80585 62.1741 7.14116 62.365Z" fill="white"/>
</svg>
