<svg width="120" height="30" viewBox="0 0 120 30" fill="none" xmlns="http://www.w3.org/2000/svg">
<path d="M23.2537 0.719528C21.7787 2.54317 19.8353 6.10522 16.8855 12.4454C13.0681 20.5921 11.1941 24.0178 9.71915 25.5346C7.87984 27.4094 5.46792 27.7503 3.9583 26.3527C3.38568 25.8244 3.35098 25.7221 3.35098 24.6995C3.35098 23.5065 3.71537 22.6884 4.4268 22.3134C4.65238 22.1941 5.38116 22.0919 6.04053 22.0748H7.25517V21.4954C7.25517 20.6432 6.50903 20.2512 4.73914 20.1489C2.53544 20.0296 1.37286 20.575 0.487908 22.1771C0.0714613 22.9611 -0.0152985 23.2679 0.00205349 24.3757C0.00205349 26.08 0.470556 27.1708 1.73725 28.2957C2.88248 29.3183 3.90624 29.6591 5.86701 29.6591C10.205 29.6591 12.5996 27.5969 16.4517 20.5239C17.2672 19.0411 17.9266 17.9333 17.9266 18.0697C17.9266 18.8707 17.3019 22.0919 16.6426 24.7847C15.5494 29.233 15.5494 29.199 16.122 29.6421C16.3823 29.8296 16.6946 30 16.8334 30C17.4755 30 20.0783 26.6936 22.2473 23.0974C23.4445 21.1375 23.9651 20.4046 23.7569 20.967C23.7048 21.1034 23.5834 22.0748 23.4966 23.1315C23.3057 25.3642 23.4966 27.2901 23.9824 28.3809C24.4336 29.3864 25.3359 29.8125 26.967 29.8296C28.3898 29.8296 29.483 29.5228 30.7671 28.7388C31.3223 28.3979 31.8776 28.1252 32.0164 28.1252C32.1379 28.1252 32.4675 28.3638 32.7452 28.6365C33.9078 29.7955 36.3197 30 38.2978 29.0967L39.3042 28.6365L39.8248 29.0626C40.7965 29.8637 41.9244 29.8466 43.6943 28.9944C45.2559 28.2275 46.8697 26.5743 49.8889 22.5861C52.2661 19.4502 52.9776 18.6832 52.9776 19.2968C52.9776 19.4161 52.3876 20.2512 51.6762 21.1375C50.2707 22.8759 48.9693 25.1597 48.6396 26.455C48.3619 27.5117 48.6222 28.2616 49.5245 29.0456C50.1492 29.608 50.288 29.6591 51.2944 29.6591C52.6826 29.6591 53.8105 29.3353 55.268 28.4831L56.4132 27.8185L57.0726 28.4831C58.0443 29.4546 58.9987 29.8637 60.3348 29.8466C61.7576 29.8466 62.9202 29.4035 64.9504 28.1252C65.8527 27.5628 66.6335 27.1026 66.7029 27.1026C66.7724 27.1026 66.7897 27.5117 66.7377 28.0059C66.6509 28.7899 66.7029 28.9774 67.05 29.3694C67.2756 29.625 67.7094 29.8807 68.0043 29.9318C68.9414 30.1023 69.4966 29.4376 71.2145 25.9607C72.8802 22.6202 73.8172 21.3761 75.483 20.3023C76.9232 19.365 76.9232 19.5695 75.431 22.4328C74.0081 25.1597 73.2793 26.847 73.2793 27.3924C73.2793 28.5002 74.7195 29.8296 75.9168 29.8296C76.7671 29.8296 77.5479 29.5057 78.832 28.6195L79.8557 27.9207L80.7407 28.6877C81.2265 29.1137 81.9033 29.5569 82.2503 29.6762C83.2741 30 84.7316 29.7784 86.2759 29.0285L87.6641 28.3809L88.4449 29.0967C89.6943 30.2727 90.6313 30.1023 93.1647 28.2957C93.9455 27.7332 94.6222 27.2731 94.6743 27.2731C94.709 27.2731 94.8305 27.5798 94.9519 27.9548C95.056 28.3298 95.4378 28.8922 95.7848 29.233C96.4615 29.8807 97.225 30.1023 98.2141 29.9489C99.1858 29.7955 101.199 28.7729 102.274 27.8866C102.812 27.4605 103.298 27.1026 103.35 27.1026C103.42 27.1026 103.593 27.3583 103.749 27.648C104.808 29.7103 106.994 30.4261 109.128 29.4035C111.454 28.2786 115.011 24.0689 114.681 22.7907C114.508 22.0578 114.108 22.1089 113.31 22.9611C111.159 25.296 110.239 26.1652 109.458 26.6084C107.966 27.4605 107.081 27.1878 106.769 25.7903C106.439 24.3757 107.029 23.5576 110.083 21.2568C111.957 19.8592 115.15 16.7573 116.225 15.3257C117.666 13.4168 119.088 10.1956 119.141 8.7299C119.175 7.80956 118.828 7.50278 117.683 7.50278C117.041 7.50278 116.677 7.62208 115.948 8.11634C113.536 9.70137 110.69 12.3942 108.92 14.7462C107.949 16.0415 107.324 17.03 104.981 21.0011C103.142 24.086 101.042 26.4891 99.7237 27.0345C98.4744 27.5458 97.6241 26.5913 97.8323 24.9552C97.9712 23.7621 98.3529 23.3361 100.765 21.6488C104.374 19.1093 107.029 16.5528 108.434 14.2349C109.146 13.0589 110.291 10.6728 110.655 9.58207C110.916 8.83216 110.933 8.59355 110.76 8.18451C110.308 7.09374 108.556 7.196 106.699 8.42312C102.969 10.8774 99.2726 15.4109 96.1666 21.3249C95.0213 23.5406 94.5008 24.3075 93.7546 25.0574C92.1756 26.5913 90.9783 27.0004 90.9783 26.0119C90.9783 25.5006 91.2907 24.7847 93.3035 20.7795C94.119 19.1263 94.7958 17.6265 94.7958 17.422C94.7958 16.9448 94.3099 16.7062 93.3208 16.7062C92.7135 16.7062 92.4185 16.8084 92.1062 17.1152C91.6898 17.5243 91.6898 17.5243 91.256 17.2004C90.3016 16.4676 88.0458 16.5017 86.3801 17.3027C84.4713 18.206 81.7124 20.9329 80.4283 23.1827C79.4046 24.9722 76.9232 27.3242 76.9232 26.4891C76.9232 26.3357 77.357 25.4494 77.895 24.5291C80.0292 20.8307 80.4457 19.2116 79.7169 17.6095C79.1269 16.3483 78.1205 16.1949 76.2986 17.1323C75.6565 17.4561 75.1186 17.7117 75.0839 17.6777C75.0666 17.6606 75.3095 17.03 75.6392 16.2801C77.3223 12.4794 79.0055 8.37199 79.0055 8.04817C79.0055 7.12783 77.357 6.804 76.4894 7.53687C76.0903 7.89478 74.2163 11.6954 71.0062 18.7173C70.3989 20.0637 69.6354 21.4783 69.3057 21.8533C68.7678 22.4668 66.4427 24.2053 66.165 24.2053C66.0956 24.2053 65.9395 23.6087 65.8354 22.8759C65.7312 22.143 65.4883 21.0522 65.3148 20.4387L65.0025 19.3479L65.7312 18.4105C66.1303 17.8992 66.6682 17.1493 66.9459 16.7403C67.4144 16.0245 67.4317 16.0074 67.102 15.6495C66.7897 15.3086 65.8527 14.8314 65.471 14.8314C65.0892 14.8314 63.7184 16.2801 60.5257 20.0296C58.7037 22.1771 56.6909 24.4268 56.0836 25.0233C54.8342 26.2334 53.1337 27.1538 52.3529 27.0685C51.1209 26.9322 51.8497 25.1597 54.6433 21.4442C55.6498 20.1149 56.5868 18.8025 56.7429 18.5298C57.2982 17.4731 56.5174 16.7062 54.8863 16.7062C54.3484 16.7062 54.0187 16.638 54.0187 16.5017C54.0187 16.3994 54.2095 15.837 54.4351 15.2745C54.8516 14.2519 54.9383 13.7066 54.9036 12.3772C54.8863 11.8147 54.7648 11.5761 54.0881 10.9455C53.3072 10.2297 53.2378 10.1956 52.4396 10.2638C51.4679 10.3661 50.5483 10.9796 50.0798 11.8147C49.6286 12.6158 49.646 15.4279 50.0971 16.7403L50.4442 17.6947L49.8369 18.6662C48.7437 20.4387 46.1062 23.7621 44.8395 24.9211C43.729 25.9607 42.9134 26.3698 42.9134 25.9096C42.9134 25.8073 43.8157 24.0007 44.9089 21.8874C46.0021 19.791 46.9044 17.8822 46.9044 17.6777C46.9044 17.4561 46.8176 17.2004 46.6962 17.0811C46.4012 16.7914 45.0651 16.8255 44.4404 17.1493C43.9545 17.3879 43.8504 17.3879 43.2778 17.1664C42.3061 16.7573 41.4212 16.6721 40.3453 16.8766C37.4302 17.4731 34.463 19.9615 32.6584 23.3361C32.3461 23.9326 31.7561 24.7847 31.357 25.2279C30.5415 26.1141 28.7022 27.1026 27.8693 27.1026C26.8455 27.1026 26.325 25.8926 26.4811 23.7962C26.7588 19.9274 29.1533 14.5246 34.463 5.86662C36.1115 3.17377 37.1873 1.23083 37.1873 0.975178C37.1873 0.412746 36.6494 0.105967 35.9206 0.2764C35.5215 0.361618 34.7233 1.00926 33.0228 2.7136C29.7259 5.96888 27.1752 9.10485 23.0628 14.9507C22.3167 16.0074 21.6746 16.8766 21.6226 16.8766C21.4838 16.8766 21.7267 14.3201 22.0043 12.7862C22.5596 9.71842 23.3404 7.17896 24.6939 3.92368C25.6829 1.58874 25.7871 0.702484 25.1797 0.2764C24.4857 -0.200813 23.913 -0.0644665 23.2537 0.719528ZM107.636 10.8774C107.636 11.3546 105.068 14.9507 103.663 16.4335C102.587 17.5584 100.886 18.99 100.747 18.8707C100.452 18.5639 103.333 14.8144 105.71 12.3942C107.237 10.8603 107.636 10.5365 107.636 10.8774ZM115.948 11.2012C115.497 12.3942 113.761 14.9166 112.512 16.2631C111.471 17.3368 109.736 18.8196 109.614 18.7003C109.354 18.4446 111.367 15.5984 113.761 12.8203C115.445 10.8603 116.33 10.2127 115.948 11.2012ZM52.6999 12.718C52.8561 13.1271 52.8214 13.877 52.6132 14.4735C52.4049 15.0359 52.0406 15.1723 51.867 14.7292C51.6935 14.3031 51.7456 13.1441 51.9364 12.7692C52.162 12.3772 52.5611 12.3431 52.6999 12.718ZM41.907 19.1775C42.3755 20.2001 41.1435 23.2849 39.6166 24.9381C38.6969 25.9266 36.9964 26.9322 36.2156 26.9322C35.1571 26.9322 34.8101 25.9437 35.4 24.512C36.2329 22.4668 38.4193 19.8081 39.8421 19.1093C40.8659 18.615 41.6467 18.6321 41.907 19.1775ZM89.5555 19.2968C89.9893 20.183 89.1737 22.535 87.7682 24.4609C86.9353 25.6028 85.3389 26.8129 84.3499 27.0174C83.8814 27.1197 83.7252 27.0685 83.3782 26.6595C83.0138 26.2505 82.9617 26.063 83.0485 25.279C83.2567 23.3531 85.6339 20.1319 87.56 19.1775C88.6532 18.6491 89.2431 18.6662 89.5555 19.2968ZM62.365 22.8588C62.4344 23.0804 62.4864 23.9155 62.5038 24.7166C62.5211 26.3016 62.2608 26.9833 61.4106 27.5287C60.8727 27.8866 60.4215 27.7503 59.8316 27.0856C58.9466 26.0459 59.1201 25.5176 61.0983 23.2167C61.9138 22.2623 62.1741 22.1941 62.365 22.8588Z" fill="white"/>
</svg>
